<svg width="20" height="23" viewBox="0 0 20 23" fill="none" xmlns="http://www.w3.org/2000/svg">
<path d="M10 23C10.6881 23.0009 11.3594 22.7799 11.9205 22.3677C12.4817 21.9555 12.9048 21.3726 13.1311 20.7H6.86889C7.09518 21.3726 7.51831 21.9555 8.07946 22.3677C8.6406 22.7799 9.31189 23.0009 10 23ZM17.7778 14.4739V9.2C17.7778 5.50045 15.35 2.38395 12.0611 1.4467C11.7356 0.598 10.94 0 10 0C9.06 0 8.26445 0.598 7.93889 1.4467C4.65 2.3851 2.22222 5.50045 2.22222 9.2V14.4739L0.325556 16.4369C0.117167 16.6526 6.29304e-05 16.945 0 17.25V18.4C0 18.705 0.117063 18.9975 0.325437 19.2132C0.533811 19.4288 0.816426 19.55 1.11111 19.55H18.8889C19.1836 19.55 19.4662 19.4288 19.6746 19.2132C19.8829 18.9975 20 18.705 20 18.4V17.25C19.9999 16.945 19.8828 16.6526 19.6744 16.4369L17.7778 14.4739Z" fill="#00D5FF"/>
</svg>
