<svg width="21" height="19" viewBox="0 0 21 19" fill="none" xmlns="http://www.w3.org/2000/svg">
<path d="M0.400391 2.5998C0.400391 2.12242 0.590033 1.66458 0.927598 1.32701C1.26516 0.989447 1.723 0.799805 2.20039 0.799805H17.8004C18.2778 0.799805 18.7356 0.989447 19.0732 1.32701C19.4107 1.66458 19.6004 2.12242 19.6004 2.5998V8.30821C19.2303 8.00255 18.8279 7.73818 18.4004 7.51981V2.5998C18.4004 2.44067 18.3372 2.28806 18.2247 2.17554C18.1121 2.06302 17.9595 1.9998 17.8004 1.9998H2.20039C2.04126 1.9998 1.88865 2.06302 1.77613 2.17554C1.6636 2.28806 1.60039 2.44067 1.60039 2.5998V13.3998C1.60039 13.5589 1.6636 13.7115 1.77613 13.8241C1.88865 13.9366 2.04126 13.9998 2.20039 13.9998H5.20039V12.1998C5.20039 11.7224 5.39003 11.2646 5.7276 10.927C6.06516 10.5894 6.523 10.3998 7.00039 10.3998H9.52039C9.3244 10.7835 9.16645 11.1854 9.04879 11.5998H7.00039C6.84126 11.5998 6.68865 11.663 6.57613 11.7755C6.4636 11.8881 6.40039 12.0407 6.40039 12.1998V13.9998H8.82679C8.86439 14.4126 8.93839 14.8126 9.04879 15.1998H2.20039C1.723 15.1998 1.26516 15.0102 0.927598 14.6726C0.590033 14.335 0.400391 13.8772 0.400391 13.3998V2.5998ZM13.0004 6.1998C13.0004 6.60421 12.92 6.9906 12.7748 7.3422C11.8244 7.75487 10.9846 8.38548 10.3232 9.18301C10.2176 9.19421 10.11 9.19981 10.0004 9.19981C9.40705 9.19981 8.82703 9.02386 8.33368 8.69421C7.84033 8.36457 7.45581 7.89603 7.22875 7.34786C7.00169 6.79968 6.94228 6.19648 7.05803 5.61453C7.17379 5.03259 7.45951 4.49804 7.87907 4.07848C8.29863 3.65893 8.83318 3.3732 9.41512 3.25745C9.99706 3.14169 10.6003 3.2011 11.1484 3.42817C11.6966 3.65523 12.1652 4.03975 12.4948 4.53309C12.8244 5.02644 13.0004 5.60646 13.0004 6.1998ZM10.0004 7.9998C10.4778 7.9998 10.9356 7.81016 11.2732 7.4726C11.6107 7.13503 11.8004 6.67719 11.8004 6.1998C11.8004 5.72241 11.6107 5.26458 11.2732 4.92701C10.9356 4.58945 10.4778 4.3998 10.0004 4.3998C9.523 4.3998 9.06516 4.58945 8.7276 4.92701C8.39003 5.26458 8.20039 5.72241 8.20039 6.1998C8.20039 6.67719 8.39003 7.13503 8.7276 7.4726C9.06516 7.81016 9.523 7.9998 10.0004 7.9998ZM20.8004 13.3998C20.8004 14.832 20.2315 16.2055 19.2188 17.2182C18.2061 18.2309 16.8326 18.7998 15.4004 18.7998C13.9682 18.7998 12.5947 18.2309 11.582 17.2182C10.5693 16.2055 10.0004 14.832 10.0004 13.3998C10.0004 11.9676 10.5693 10.5941 11.582 9.58143C12.5947 8.56873 13.9682 7.9998 15.4004 7.9998C16.8326 7.9998 18.2061 8.56873 19.2188 9.58143C20.2315 10.5941 20.8004 11.9676 20.8004 13.3998ZM15.9716 10.2318C15.9369 10.1069 15.8623 9.99688 15.7591 9.91845C15.656 9.84003 15.53 9.79757 15.4004 9.79757C15.2708 9.79757 15.1448 9.84003 15.0416 9.91845C14.9385 9.99688 14.8639 10.1069 14.8292 10.2318L14.2568 12.0702H12.4004C11.8196 12.0702 11.5772 12.8466 12.0476 13.203L13.5476 14.3394L12.9752 16.1778C12.7952 16.7538 13.4288 17.2338 13.8992 16.8774L15.3992 15.741L16.8992 16.8774C17.3696 17.2338 18.0032 16.7538 17.8232 16.1778L17.2508 14.3394L18.7508 13.203C19.2212 12.8466 18.9788 12.0702 18.398 12.0702H16.544L15.9716 10.2318Z" fill="black"/>
</svg>
