<svg width="25" height="27" viewBox="0 0 25 27" fill="none" xmlns="http://www.w3.org/2000/svg">
<path d="M1.55926 18.7094C1.20106 19.0697 1 19.5572 1 20.0653C1 20.5734 1.20106 21.0608 1.55926 21.4211L5.57881 25.4407C5.93915 25.7989 6.42659 26 6.93468 26C7.44277 26 7.93022 25.7989 8.29056 25.4407L15.4257 18.3055L8.69444 11.5742L1.55926 18.7094Z" stroke="#0500FF" stroke-width="1.5" stroke-linecap="round" stroke-linejoin="round"/>
<path d="M9.7334 12.6128L20.792 1.55425C21.0624 1.28739 21.4058 1.10661 21.7789 1.03473C22.152 0.962851 22.538 1.00309 22.8883 1.15037C23.2395 1.29465 23.5401 1.53967 23.7523 1.85454C23.9645 2.16941 24.0788 2.54005 24.0807 2.91974V7.09315C24.0822 7.34627 24.0338 7.59721 23.9381 7.83155C23.8424 8.06588 23.7013 8.27899 23.5229 8.45864L14.4645 17.344M14.5415 7.80474L19.3495 12.6128" stroke="#0500FF" stroke-width="1.5" stroke-linecap="round" stroke-linejoin="round"/>
</svg>
