<svg width="14" height="16" viewBox="0 0 14 16" fill="none" xmlns="http://www.w3.org/2000/svg">
<path d="M2.79645e-05 1.83042C2.79645e-05 0.82369 0.725728 0 1.6127 0H7.25703C6.76697 0.742806 6.48737 1.63712 6.4553 2.56439C6.42322 3.49166 6.64019 4.4081 7.07743 5.19222C7.51468 5.97635 8.15155 6.59114 8.90363 6.95509C9.65572 7.31905 10.4875 7.41498 11.2887 7.23017V15.0827C11.2887 15.7416 10.7001 16.1809 10.1679 15.9247L5.64437 13.7282L1.12083 15.9247C0.998355 15.9851 0.864527 16.0098 0.731504 15.9965C0.598481 15.9833 0.47048 15.9325 0.359128 15.8489C0.247776 15.7652 0.156602 15.6513 0.0938893 15.5175C0.0311767 15.3837 -0.00108737 15.2342 2.79645e-05 15.0827V1.83042ZM13.7641 0.311172C14.0786 0.668104 14.0786 1.24469 13.7641 1.60162L10.9097 4.84147C10.8351 4.92631 10.7465 4.99362 10.649 5.03955C10.5514 5.08548 10.4469 5.10912 10.3413 5.10912C10.2357 5.10912 10.1311 5.08548 10.0335 5.03955C9.936 4.99362 9.84739 4.92631 9.7728 4.84147L8.63586 3.55102C8.56121 3.46629 8.502 3.3657 8.46159 3.25499C8.42119 3.14428 8.4004 3.02563 8.4004 2.9058C8.4004 2.78597 8.42119 2.66731 8.46159 2.5566C8.502 2.4459 8.56121 2.3453 8.63586 2.26057C8.71052 2.17584 8.79914 2.10863 8.89668 2.06277C8.99422 2.01691 9.09876 1.99331 9.20433 1.99331C9.3099 1.99331 9.41444 2.01691 9.51198 2.06277C9.60952 2.10863 9.69814 2.17584 9.7728 2.26057L10.3453 2.91037L12.6272 0.320324C12.9417 -0.0457607 13.4497 -0.0457606 13.7641 0.311172Z" fill="#0500FF"/>
</svg>
