<svg width="26" height="33" viewBox="0 0 26 33" fill="none" xmlns="http://www.w3.org/2000/svg">
<path fill-rule="evenodd" clip-rule="evenodd" d="M2.90049e-07 31.8026V4.10356C2.90049e-07 3.01523 0.456546 1.97147 1.2692 1.2019C2.08186 0.432338 3.18406 0 4.33333 0L21.6667 0C22.8159 0 23.9181 0.432338 24.7308 1.2019C25.5435 1.97147 26 3.01523 26 4.10356V31.8026C26.0001 31.9807 25.9513 32.1558 25.8582 32.3107C25.7652 32.4655 25.6312 32.5948 25.4694 32.6856C25.3076 32.7765 25.1236 32.826 24.9355 32.8291C24.7474 32.8322 24.5617 32.7888 24.3967 32.7033L13 26.8147L1.60333 32.7033C1.4383 32.7888 1.25259 32.8322 1.06449 32.8291C0.876398 32.826 0.692395 32.7765 0.530599 32.6856C0.368803 32.5948 0.23479 32.4655 0.141753 32.3107C0.0487165 32.1558 -0.000137353 31.9807 2.90049e-07 31.8026ZM19.1837 12.0111C19.3871 11.8185 19.5014 11.5572 19.5014 11.2848C19.5014 11.0124 19.3871 10.7511 19.1837 10.5585C18.9802 10.3658 18.7043 10.2576 18.4167 10.2576C18.129 10.2576 17.8531 10.3658 17.6497 10.5585L11.9167 15.9895L9.43367 13.6361C9.33294 13.5407 9.21337 13.4651 9.08177 13.4135C8.95016 13.3618 8.80911 13.3353 8.66667 13.3353C8.52422 13.3353 8.38317 13.3618 8.25157 13.4135C8.11997 13.4651 8.00039 13.5407 7.89967 13.6361C7.79894 13.7315 7.71904 13.8447 7.66453 13.9694C7.61002 14.094 7.58196 14.2276 7.58196 14.3625C7.58197 14.4973 7.61002 14.6309 7.66453 14.7555C7.71904 14.8802 7.79894 14.9934 7.89967 15.0888L11.1497 18.1665C11.2503 18.262 11.3698 18.3378 11.5015 18.3895C11.6331 18.4412 11.7742 18.4679 11.9167 18.4679C12.0592 18.4679 12.2003 18.4412 12.3319 18.3895C12.4635 18.3378 12.583 18.262 12.6837 18.1665L19.1837 12.0111Z" fill="#D9D9D9"/>
</svg>
