<svg width="20" height="18" viewBox="0 0 20 18" fill="none" xmlns="http://www.w3.org/2000/svg">
<path d="M17.6923 2.34783H15.0269L13.7163 0.348261C13.6461 0.241192 13.551 0.153394 13.4395 0.0926468C13.328 0.0318993 13.2034 7.72874e-05 13.0769 0H6.92308C6.79657 7.72874e-05 6.67203 0.0318993 6.56049 0.0926468C6.44896 0.153394 6.35387 0.241192 6.28365 0.348261L4.97212 2.34783H2.30769C1.69565 2.34783 1.10868 2.59519 0.675907 3.03549C0.243131 3.47579 0 4.07297 0 4.69565V15.6522C0 16.2749 0.243131 16.872 0.675907 17.3123C1.10868 17.7526 1.69565 18 2.30769 18H17.6923C18.3043 18 18.8913 17.7526 19.3241 17.3123C19.7569 16.872 20 16.2749 20 15.6522V4.69565C20 4.07297 19.7569 3.47579 19.3241 3.03549C18.8913 2.59519 18.3043 2.34783 17.6923 2.34783ZM13.4615 9.78261C13.4615 10.4791 13.2585 11.16 12.8782 11.7392C12.4978 12.3183 11.9572 12.7697 11.3247 13.0363C10.6922 13.3028 9.99616 13.3726 9.32469 13.2367C8.65321 13.1008 8.03643 12.7654 7.55232 12.2729C7.06822 11.7803 6.73854 11.1528 6.60497 10.4697C6.47141 9.78652 6.53996 9.07841 6.80196 8.4349C7.06395 7.79138 7.50763 7.24136 8.07687 6.85439C8.64612 6.46742 9.31537 6.26087 10 6.26087C10.9181 6.26087 11.7985 6.63191 12.4477 7.29236C13.0968 7.95282 13.4615 8.84859 13.4615 9.78261Z" fill="#0500FF"/>
</svg>
