<svg width="21" height="21" viewBox="0 0 21 21" fill="none" xmlns="http://www.w3.org/2000/svg">
<path fill-rule="evenodd" clip-rule="evenodd" d="M10.4997 19.8747C15.6773 19.8747 19.8747 15.6773 19.8747 10.4997C19.8747 5.32207 15.6773 1.12467 10.4997 1.12467C5.32207 1.12467 1.12467 5.32207 1.12467 10.4997C1.12467 15.6773 5.32207 19.8747 10.4997 19.8747ZM10.4997 20.9163C16.2528 20.9163 20.9163 16.2528 20.9163 10.4997C20.9163 4.74655 16.2528 0.0830078 10.4997 0.0830078C4.74655 0.0830078 0.0830078 4.74655 0.0830078 10.4997C0.0830078 16.2528 4.74655 20.9163 10.4997 20.9163Z" fill="black"/>
<path fill-rule="evenodd" clip-rule="evenodd" d="M16.0568 6.46837C16.1592 6.56094 16.2207 6.69041 16.2278 6.82831C16.2348 6.96622 16.1868 7.10127 16.0943 7.20379L9.13802 14.8918L4.93177 10.8767C4.83732 10.7802 4.78406 10.6507 4.78321 10.5157C4.78237 10.3806 4.83402 10.2506 4.92725 10.1529C5.02049 10.0552 5.14803 9.9975 5.28297 9.99204C5.4179 9.98657 5.54969 10.0337 5.65052 10.1236L9.08281 13.3996L15.3219 6.50535C15.3678 6.45461 15.4233 6.41342 15.4851 6.38412C15.5469 6.35483 15.6139 6.33801 15.6823 6.33462C15.7506 6.33124 15.819 6.34135 15.8834 6.36439C15.9478 6.38743 16.0071 6.42294 16.0578 6.46889" fill="black"/>
</svg>
