<svg width="21" height="21" viewBox="0 0 21 21" fill="none" xmlns="http://www.w3.org/2000/svg">
<path d="M10.5 0C8.4233 0 6.39323 0.615814 4.66652 1.76957C2.9398 2.92332 1.59399 4.5632 0.799269 6.48182C0.00454949 8.40045 -0.203385 10.5116 0.201759 12.5484C0.606904 14.5852 1.60693 16.4562 3.07538 17.9246C4.54383 19.3931 6.41475 20.3931 8.45155 20.7982C10.4884 21.2034 12.5996 20.9954 14.5182 20.2007C16.4368 19.406 18.0767 18.0602 19.2304 16.3335C20.3842 14.6068 21 12.5767 21 10.5C20.9971 7.71613 19.8899 5.04712 17.9214 3.07862C15.9529 1.11013 13.2839 0.00293982 10.5 0ZM14.3022 13.1593C14.3773 13.2344 14.4368 13.3235 14.4774 13.4215C14.518 13.5196 14.5389 13.6246 14.5389 13.7308C14.5389 13.8369 14.518 13.942 14.4774 14.04C14.4368 14.1381 14.3773 14.2272 14.3022 14.3022C14.2272 14.3773 14.1381 14.4368 14.04 14.4774C13.942 14.518 13.8369 14.5389 13.7308 14.5389C13.6246 14.5389 13.5196 14.518 13.4215 14.4774C13.3235 14.4368 13.2344 14.3773 13.1593 14.3022L10.5 11.6419L7.84068 14.3022C7.76563 14.3773 7.67654 14.4368 7.5785 14.4774C7.48045 14.518 7.37536 14.5389 7.26923 14.5389C7.16311 14.5389 7.05802 14.518 6.95997 14.4774C6.86192 14.4368 6.77283 14.3773 6.69779 14.3022C6.62275 14.2272 6.56322 14.1381 6.52261 14.04C6.482 13.942 6.46109 13.8369 6.46109 13.7308C6.46109 13.6246 6.482 13.5196 6.52261 13.4215C6.56322 13.3235 6.62275 13.2344 6.69779 13.1593L9.35813 10.5L6.69779 7.84067C6.54624 7.68912 6.46109 7.48356 6.46109 7.26923C6.46109 7.0549 6.54624 6.84934 6.69779 6.69779C6.84935 6.54623 7.0549 6.46109 7.26923 6.46109C7.48357 6.46109 7.68912 6.54623 7.84068 6.69779L10.5 9.35812L13.1593 6.69779C13.2344 6.62274 13.3235 6.56322 13.4215 6.5226C13.5196 6.48199 13.6246 6.46109 13.7308 6.46109C13.8369 6.46109 13.942 6.48199 14.04 6.5226C14.1381 6.56322 14.2272 6.62274 14.3022 6.69779C14.3773 6.77283 14.4368 6.86192 14.4774 6.95997C14.518 7.05801 14.5389 7.1631 14.5389 7.26923C14.5389 7.37536 14.518 7.48044 14.4774 7.57849C14.4368 7.67654 14.3773 7.76563 14.3022 7.84067L11.6419 10.5L14.3022 13.1593Z" fill="#0500FF"/>
</svg>
