<svg width="32" height="24" viewBox="0 0 32 24" fill="none" xmlns="http://www.w3.org/2000/svg">
<path d="M7.68205 1H11.841C11.841 1 11.841 5.125 16 5.125C20.159 5.125 20.159 1 20.159 1H24.3179M24.3179 10.625V22.175C24.3179 22.3938 24.2303 22.6036 24.0743 22.7584C23.9183 22.9131 23.7068 23 23.4862 23H8.51385C8.29324 23 8.08167 22.9131 7.92568 22.7584C7.76969 22.6036 7.68205 22.3938 7.68205 22.175V10.625M24.3179 1L30.4774 3.44337C30.6822 3.5247 30.846 3.68338 30.9328 3.88452C31.0197 4.08565 31.0224 4.31275 30.9404 4.51588L28.6863 10.1066C28.6245 10.2597 28.5179 10.3908 28.3803 10.4832C28.2427 10.5756 28.0803 10.625 27.9141 10.625H24.3179M7.68205 1L1.52261 3.44337C1.31782 3.5247 1.15399 3.68338 1.06715 3.88452C0.980319 4.08565 0.977594 4.31275 1.05958 4.51588L3.31374 10.1066C3.37551 10.2597 3.48208 10.3908 3.61972 10.4832C3.75735 10.5756 3.91973 10.625 4.08593 10.625H7.68205" stroke="#0500FF" stroke-width="2" stroke-linecap="round" stroke-linejoin="round"/>
</svg>
