<svg width="29" height="27" viewBox="0 0 29 27" fill="none" xmlns="http://www.w3.org/2000/svg">
<path d="M25.6538 0H3.34615C2.4587 0 1.60759 0.355579 0.980066 0.988515C0.35254 1.62145 0 2.47989 0 3.375V19.125C0 20.0201 0.35254 20.8786 0.980066 21.5115C1.60759 22.1444 2.4587 22.5 3.34615 22.5H13.3846V24.75H10.0385C9.74264 24.75 9.45894 24.8685 9.24977 25.0795C9.04059 25.2905 8.92308 25.5766 8.92308 25.875C8.92308 26.1734 9.04059 26.4595 9.24977 26.6705C9.45894 26.8815 9.74264 27 10.0385 27H18.9615C19.2574 27 19.5411 26.8815 19.7502 26.6705C19.9594 26.4595 20.0769 26.1734 20.0769 25.875C20.0769 25.5766 19.9594 25.2905 19.7502 25.0795C19.5411 24.8685 19.2574 24.75 18.9615 24.75H15.6154V22.5H25.6538C26.5413 22.5 27.3924 22.1444 28.0199 21.5115C28.6475 20.8786 29 20.0201 29 19.125V3.375C29 2.47989 28.6475 1.62145 28.0199 0.988515C27.3924 0.355579 26.5413 0 25.6538 0ZM3.34615 2.25H25.6538C25.9497 2.25 26.2334 2.36853 26.4425 2.5795C26.6517 2.79048 26.7692 3.07663 26.7692 3.375V14.625H2.23077V3.375C2.23077 3.07663 2.34828 2.79048 2.55746 2.5795C2.76663 2.36853 3.05034 2.25 3.34615 2.25ZM25.6538 20.25H3.34615C3.05034 20.25 2.76663 20.1315 2.55746 19.9205C2.34828 19.7095 2.23077 19.4234 2.23077 19.125V16.875H26.7692V19.125C26.7692 19.4234 26.6517 19.7095 26.4425 19.9205C26.2334 20.1315 25.9497 20.25 25.6538 20.25Z" fill="#0500FF"/>
</svg>
