<svg width="25" height="28" viewBox="0 0 25 28" fill="none" xmlns="http://www.w3.org/2000/svg">
<mask id="path-1-inside-1_1257_7121" fill="white">
<path d="M3.18 2.8906e-06C2.042 2.8906e-06 1.005 0.757003 0.736 1.916C0.436 3.21 1.56616e-07 5.43 1.56616e-07 7.5C-0.000231349 8.55471 0.256194 9.59363 0.747147 10.5271C1.2381 11.4606 1.94883 12.2606 2.818 12.858C3.286 13.179 3.5 13.571 3.5 13.89C3.49967 13.9234 3.49767 13.9568 3.494 13.99C3.436 14.48 3.189 16.57 2.956 18.734C2.726 20.862 2.5 23.159 2.5 24C2.5 25.0609 2.92143 26.0783 3.67157 26.8284C4.42172 27.5786 5.43913 28 6.5 28C7.56087 28 8.57828 27.5786 9.32843 26.8284C10.0786 26.0783 10.5 25.0609 10.5 24C10.5 23.16 10.273 20.862 10.044 18.734C9.811 16.57 9.564 14.479 9.506 13.989C9.50233 13.9558 9.50033 13.9224 9.5 13.889C9.5 13.571 9.714 13.179 10.181 12.858C11.0504 12.2607 11.7613 11.4607 12.2524 10.5273C12.7435 9.59377 13.0001 8.5548 13 7.5C13 5.429 12.565 3.209 12.264 1.916C11.995 0.757003 10.958 2.8906e-06 9.82 2.8906e-06C9.22592 -0.000889489 8.65002 0.204864 8.191 0.582003C7.70829 0.204338 7.11289 -0.000582211 6.5 2.8906e-06C5.862 2.8906e-06 5.275 0.217003 4.809 0.582003C4.34998 0.204864 3.77408 -0.000889489 3.18 2.8906e-06ZM9.25 2.57C9.25 2.41883 9.31005 2.27385 9.41695 2.16695C9.52384 2.06006 9.66883 2 9.82 2C10.08 2 10.27 2.166 10.316 2.369C10.606 3.618 11 5.661 11 7.5C11.0001 8.23038 10.8225 8.94982 10.4824 9.59619C10.1423 10.2426 9.65002 10.7964 9.048 11.21C8.258 11.753 7.5 12.683 7.5 13.89C7.5 14.0013 7.50667 14.1133 7.52 14.226C7.578 14.713 7.824 16.796 8.056 18.948C8.29 21.135 8.5 23.295 8.5 24C8.5 24.5304 8.28929 25.0391 7.91421 25.4142C7.53914 25.7893 7.03043 26 6.5 26C5.96957 26 5.46086 25.7893 5.08579 25.4142C4.71071 25.0391 4.5 24.5304 4.5 24C4.5 23.295 4.709 21.135 4.944 18.948C5.176 16.796 5.422 14.713 5.48 14.226C5.49333 14.1127 5.5 14.0007 5.5 13.89C5.5 12.683 4.741 11.753 3.952 11.21C3.34998 10.7964 2.85767 10.2426 2.51759 9.59619C2.1775 8.94982 1.99986 8.23038 2 7.5C2 5.66 2.394 3.618 2.684 2.369C2.7117 2.25987 2.77613 2.16361 2.86646 2.09641C2.9568 2.02921 3.06752 1.99516 3.18 2C3.33117 2 3.47616 2.06006 3.58305 2.16695C3.68995 2.27385 3.75 2.41883 3.75 2.57V8C3.75 8.26522 3.85536 8.51957 4.04289 8.70711C4.23043 8.89465 4.48478 9 4.75 9C5.01522 9 5.26957 8.89465 5.45711 8.70711C5.64464 8.51957 5.75 8.26522 5.75 8V2.75C5.75 2.55109 5.82902 2.36032 5.96967 2.21967C6.11032 2.07902 6.30109 2 6.5 2C6.69891 2 6.88968 2.07902 7.03033 2.21967C7.17098 2.36032 7.25 2.55109 7.25 2.75V8C7.25 8.26522 7.35536 8.51957 7.54289 8.70711C7.73043 8.89465 7.98478 9 8.25 9C8.51522 9 8.76957 8.89465 8.95711 8.70711C9.14464 8.51957 9.25 8.26522 9.25 8V2.57ZM16.5 7.5C16.4998 6.12774 17.0126 4.80497 17.9377 3.79142C18.8628 2.77786 20.1334 2.14675 21.5 2.022V13C21.5 13.279 21.555 13.908 21.627 14.658C21.702 15.435 21.804 16.416 21.911 17.45V17.453C22.194 20.164 22.5 23.136 22.5 24C22.5 24.5304 22.2893 25.0391 21.9142 25.4142C21.5391 25.7893 21.0304 26 20.5 26C19.9696 26 19.4609 25.7893 19.0858 25.4142C18.7107 25.0391 18.5 24.5304 18.5 24C18.5 23.286 18.712 20.885 18.948 18.456C19.1191 16.7073 19.2974 14.9593 19.483 13.212C19.4887 13.1591 19.4931 13.1061 19.496 13.053C19.5032 12.9174 19.4827 12.7817 19.4357 12.6543C19.3888 12.5268 19.3163 12.4103 19.2229 12.3117C19.1294 12.2132 19.0168 12.1348 18.892 12.0812C18.7672 12.0276 18.6328 11.9999 18.497 12H17C16.8674 12 16.7402 11.9473 16.6464 11.8536C16.5527 11.7598 16.5 11.6326 16.5 11.5V7.5ZM22 2.8906e-06C20.0109 2.8906e-06 18.1032 0.790179 16.6967 2.1967C15.2902 3.60322 14.5 5.51088 14.5 7.5V11.5C14.5 12.163 14.7634 12.7989 15.2322 13.2678C15.7011 13.7366 16.337 14 17 14H17.389C17.2404 15.4202 17.0967 16.8408 16.958 18.262C16.728 20.632 16.5 23.162 16.5 24C16.5 25.0609 16.9214 26.0783 17.6716 26.8284C18.4217 27.5786 19.4391 28 20.5 28C21.5609 28 22.5783 27.5786 23.3284 26.8284C24.0786 26.0783 24.5 25.0609 24.5 24C24.5 23.015 24.183 19.967 23.914 17.369L23.901 17.247C23.8036 16.3203 23.7093 15.3933 23.618 14.466C23.54 13.668 23.5 13.158 23.5 13V1C23.5 0.734786 23.3946 0.480432 23.2071 0.292896C23.0196 0.10536 22.7652 2.8906e-06 22.5 2.8906e-06H22Z"/>
</mask>
<path d="M3.18 2.8906e-06C2.042 2.8906e-06 1.005 0.757003 0.736 1.916C0.436 3.21 1.56616e-07 5.43 1.56616e-07 7.5C-0.000231349 8.55471 0.256194 9.59363 0.747147 10.5271C1.2381 11.4606 1.94883 12.2606 2.818 12.858C3.286 13.179 3.5 13.571 3.5 13.89C3.49967 13.9234 3.49767 13.9568 3.494 13.99C3.436 14.48 3.189 16.57 2.956 18.734C2.726 20.862 2.5 23.159 2.5 24C2.5 25.0609 2.92143 26.0783 3.67157 26.8284C4.42172 27.5786 5.43913 28 6.5 28C7.56087 28 8.57828 27.5786 9.32843 26.8284C10.0786 26.0783 10.5 25.0609 10.5 24C10.5 23.16 10.273 20.862 10.044 18.734C9.811 16.57 9.564 14.479 9.506 13.989C9.50233 13.9558 9.50033 13.9224 9.5 13.889C9.5 13.571 9.714 13.179 10.181 12.858C11.0504 12.2607 11.7613 11.4607 12.2524 10.5273C12.7435 9.59377 13.0001 8.5548 13 7.5C13 5.429 12.565 3.209 12.264 1.916C11.995 0.757003 10.958 2.8906e-06 9.82 2.8906e-06C9.22592 -0.000889489 8.65002 0.204864 8.191 0.582003C7.70829 0.204338 7.11289 -0.000582211 6.5 2.8906e-06C5.862 2.8906e-06 5.275 0.217003 4.809 0.582003C4.34998 0.204864 3.77408 -0.000889489 3.18 2.8906e-06ZM9.25 2.57C9.25 2.41883 9.31005 2.27385 9.41695 2.16695C9.52384 2.06006 9.66883 2 9.82 2C10.08 2 10.27 2.166 10.316 2.369C10.606 3.618 11 5.661 11 7.5C11.0001 8.23038 10.8225 8.94982 10.4824 9.59619C10.1423 10.2426 9.65002 10.7964 9.048 11.21C8.258 11.753 7.5 12.683 7.5 13.89C7.5 14.0013 7.50667 14.1133 7.52 14.226C7.578 14.713 7.824 16.796 8.056 18.948C8.29 21.135 8.5 23.295 8.5 24C8.5 24.5304 8.28929 25.0391 7.91421 25.4142C7.53914 25.7893 7.03043 26 6.5 26C5.96957 26 5.46086 25.7893 5.08579 25.4142C4.71071 25.0391 4.5 24.5304 4.5 24C4.5 23.295 4.709 21.135 4.944 18.948C5.176 16.796 5.422 14.713 5.48 14.226C5.49333 14.1127 5.5 14.0007 5.5 13.89C5.5 12.683 4.741 11.753 3.952 11.21C3.34998 10.7964 2.85767 10.2426 2.51759 9.59619C2.1775 8.94982 1.99986 8.23038 2 7.5C2 5.66 2.394 3.618 2.684 2.369C2.7117 2.25987 2.77613 2.16361 2.86646 2.09641C2.9568 2.02921 3.06752 1.99516 3.18 2C3.33117 2 3.47616 2.06006 3.58305 2.16695C3.68995 2.27385 3.75 2.41883 3.75 2.57V8C3.75 8.26522 3.85536 8.51957 4.04289 8.70711C4.23043 8.89465 4.48478 9 4.75 9C5.01522 9 5.26957 8.89465 5.45711 8.70711C5.64464 8.51957 5.75 8.26522 5.75 8V2.75C5.75 2.55109 5.82902 2.36032 5.96967 2.21967C6.11032 2.07902 6.30109 2 6.5 2C6.69891 2 6.88968 2.07902 7.03033 2.21967C7.17098 2.36032 7.25 2.55109 7.25 2.75V8C7.25 8.26522 7.35536 8.51957 7.54289 8.70711C7.73043 8.89465 7.98478 9 8.25 9C8.51522 9 8.76957 8.89465 8.95711 8.70711C9.14464 8.51957 9.25 8.26522 9.25 8V2.57ZM16.5 7.5C16.4998 6.12774 17.0126 4.80497 17.9377 3.79142C18.8628 2.77786 20.1334 2.14675 21.5 2.022V13C21.5 13.279 21.555 13.908 21.627 14.658C21.702 15.435 21.804 16.416 21.911 17.45V17.453C22.194 20.164 22.5 23.136 22.5 24C22.5 24.5304 22.2893 25.0391 21.9142 25.4142C21.5391 25.7893 21.0304 26 20.5 26C19.9696 26 19.4609 25.7893 19.0858 25.4142C18.7107 25.0391 18.5 24.5304 18.5 24C18.5 23.286 18.712 20.885 18.948 18.456C19.1191 16.7073 19.2974 14.9593 19.483 13.212C19.4887 13.1591 19.4931 13.1061 19.496 13.053C19.5032 12.9174 19.4827 12.7817 19.4357 12.6543C19.3888 12.5268 19.3163 12.4103 19.2229 12.3117C19.1294 12.2132 19.0168 12.1348 18.892 12.0812C18.7672 12.0276 18.6328 11.9999 18.497 12H17C16.8674 12 16.7402 11.9473 16.6464 11.8536C16.5527 11.7598 16.5 11.6326 16.5 11.5V7.5ZM22 2.8906e-06C20.0109 2.8906e-06 18.1032 0.790179 16.6967 2.1967C15.2902 3.60322 14.5 5.51088 14.5 7.5V11.5C14.5 12.163 14.7634 12.7989 15.2322 13.2678C15.7011 13.7366 16.337 14 17 14H17.389C17.2404 15.4202 17.0967 16.8408 16.958 18.262C16.728 20.632 16.5 23.162 16.5 24C16.5 25.0609 16.9214 26.0783 17.6716 26.8284C18.4217 27.5786 19.4391 28 20.5 28C21.5609 28 22.5783 27.5786 23.3284 26.8284C24.0786 26.0783 24.5 25.0609 24.5 24C24.5 23.015 24.183 19.967 23.914 17.369L23.901 17.247C23.8036 16.3203 23.7093 15.3933 23.618 14.466C23.54 13.668 23.5 13.158 23.5 13V1C23.5 0.734786 23.3946 0.480432 23.2071 0.292896C23.0196 0.10536 22.7652 2.8906e-06 22.5 2.8906e-06H22Z" fill="#0500FF" stroke="#0500FF" stroke-width="2" mask="url(#path-1-inside-1_1257_7121)"/>
</svg>
