<svg width="16" height="16" viewBox="0 0 16 16" fill="none" xmlns="http://www.w3.org/2000/svg">
<path d="M4.22222 0.888672C1.89067 0.888672 0 2.89756 0 5.37489C0 10.3331 8 15.9998 8 15.9998C8 15.9998 16 10.3331 16 5.37489C16 2.30556 14.1093 0.888672 11.7778 0.888672C10.1244 0.888672 8.69333 1.89845 8 3.36867C7.30667 1.89845 5.87556 0.888672 4.22222 0.888672Z" fill="#0500FF"/>
<path d="M6.44531 8.88243L7.36887 9.93221C7.45331 10.0291 7.6062 10.0211 7.68087 9.91798L9.55642 7.33398" fill="#0500FF"/>
<path d="M6.44531 8.88243L7.36887 9.93221C7.45331 10.0291 7.6062 10.0211 7.68087 9.91798L9.55642 7.33398" stroke="white" stroke-width="1.5" stroke-linecap="round" stroke-linejoin="round"/>
</svg>
