<svg width="25" height="27" viewBox="0 0 25 27" fill="none" xmlns="http://www.w3.org/2000/svg">
<mask id="path-1-inside-1_1483_5350" fill="current">
<path d="M13.241 26.239L13.2272 26.2415L13.1385 26.2853L13.1135 26.2903L13.096 26.2853L13.0072 26.2415C12.9939 26.2374 12.9839 26.2395 12.9772 26.2478L12.9722 26.2603L12.951 26.7953L12.9572 26.8203L12.9697 26.8365L13.0997 26.929L13.1185 26.934L13.1335 26.929L13.2635 26.8365L13.2785 26.8165L13.2835 26.7953L13.2622 26.2615C13.2589 26.2482 13.2518 26.2407 13.241 26.239ZM13.5722 26.0978L13.556 26.1003L13.3247 26.2165L13.3122 26.229L13.3085 26.2428L13.331 26.7803L13.3372 26.7953L13.3472 26.804L13.5985 26.9203C13.6143 26.9244 13.6264 26.9211 13.6347 26.9103L13.6397 26.8928L13.5972 26.1253C13.593 26.1103 13.5847 26.1011 13.5722 26.0978ZM12.6785 26.1003C12.673 26.097 12.6664 26.0959 12.6601 26.0973C12.6538 26.0987 12.6483 26.1024 12.6447 26.1078L12.6372 26.1253L12.5947 26.8928C12.5956 26.9078 12.6026 26.9178 12.616 26.9228L12.6347 26.9203L12.886 26.804L12.8985 26.794L12.9035 26.7803L12.9247 26.2428L12.921 26.2278L12.9085 26.2153L12.6785 26.1003Z"/>
</mask>
<path d="M13.241 26.239L13.393 25.2507L13.2271 25.2252L13.062 25.2552L13.241 26.239ZM13.2272 26.2415L13.0483 25.2577L12.9106 25.2827L12.7851 25.3446L13.2272 26.2415ZM13.1385 26.2853L13.3346 27.2659L13.4631 27.2402L13.5806 27.1822L13.1385 26.2853ZM13.1135 26.2903L12.8388 27.2518L13.0719 27.3184L13.3096 27.2709L13.1135 26.2903ZM13.096 26.2853L12.6538 27.1822L12.7346 27.2221L12.8213 27.2468L13.096 26.2853ZM13.0072 26.2415L13.4494 25.3446L13.3797 25.3102L13.3055 25.2871L13.0072 26.2415ZM12.9772 26.2478L12.1963 25.6231L12.1038 25.7388L12.0487 25.8764L12.9772 26.2478ZM12.9722 26.2603L12.0437 25.8889L11.9798 26.0487L11.973 26.2206L12.9722 26.2603ZM12.951 26.7953L11.9518 26.7556L11.9461 26.8988L11.9808 27.0378L12.951 26.7953ZM12.9572 26.8203L11.9871 27.0628L12.0376 27.2649L12.1646 27.43L12.9572 26.8203ZM12.9697 26.8365L12.1771 27.4462L12.2682 27.5647L12.39 27.6513L12.9697 26.8365ZM13.0997 26.929L12.52 27.7438L12.6673 27.8487L12.8421 27.8953L13.0997 26.929ZM13.1185 26.934L12.8608 27.9003L13.1504 27.9775L13.4347 27.8827L13.1185 26.934ZM13.1335 26.929L13.4497 27.8777L13.5914 27.8305L13.7132 27.7438L13.1335 26.929ZM13.2635 26.8365L13.8432 27.6513L13.9701 27.5611L14.0635 27.4365L13.2635 26.8365ZM13.2785 26.8165L14.0785 27.4165L14.204 27.2492L14.2519 27.0456L13.2785 26.8165ZM13.2835 26.7953L14.2569 27.0243L14.2881 26.8917L14.2827 26.7555L13.2835 26.7953ZM13.2622 26.2615L14.2614 26.2218L14.2573 26.1189L14.2324 26.019L13.2622 26.2615ZM13.5722 26.0978L13.8299 25.1316L13.6274 25.0776L13.4202 25.1094L13.5722 26.0978ZM13.556 26.1003L13.404 25.1119L13.2479 25.1359L13.1068 25.2068L13.556 26.1003ZM13.3247 26.2165L12.8756 25.3231L12.7316 25.3955L12.6176 25.5094L13.3247 26.2165ZM13.3122 26.229L12.6051 25.5219L12.4173 25.7097L12.3474 25.966L13.3122 26.229ZM13.3085 26.2428L12.3437 25.9797L12.3028 26.1295L12.3093 26.2846L13.3085 26.2428ZM13.331 26.7803L12.3318 26.8221L12.3393 27.0003L12.4079 27.1649L13.331 26.7803ZM13.3372 26.7953L12.4141 27.1799L12.5036 27.3947L12.6787 27.5479L13.3372 26.7953ZM13.3472 26.804L12.6887 27.5566L12.7969 27.6513L12.9273 27.7116L13.3472 26.804ZM13.5985 26.9203L13.1785 27.8278L13.2586 27.8649L13.344 27.8874L13.5985 26.9203ZM13.6347 26.9103L14.4273 27.52L14.5438 27.3686L14.5962 27.185L13.6347 26.9103ZM13.6397 26.8928L14.6012 27.1675L14.6475 27.0056L14.6382 26.8375L13.6397 26.8928ZM13.5972 26.1253L14.5957 26.07L14.5897 25.9619L14.5607 25.8577L13.5972 26.1253ZM12.6785 26.1003L12.1602 26.9555L12.1949 26.9766L12.2313 26.9947L12.6785 26.1003ZM12.6447 26.1078L11.813 25.5526L11.7619 25.6292L11.7256 25.7138L12.6447 26.1078ZM12.6372 26.1253L11.7181 25.7313L11.6485 25.8937L11.6388 26.07L12.6372 26.1253ZM12.5947 26.8928L11.5963 26.8375L11.5932 26.8929L11.5963 26.9483L12.5947 26.8928ZM12.616 26.9228L12.2649 27.8591L12.4996 27.9472L12.7482 27.914L12.616 26.9228ZM12.6347 26.9203L12.7669 27.9115L12.9171 27.8915L13.0546 27.8278L12.6347 26.9203ZM12.886 26.804L13.3059 27.7116L13.4159 27.6607L13.5106 27.5849L12.886 26.804ZM12.8985 26.794L13.5231 27.5749L13.7423 27.3996L13.8383 27.1358L12.8985 26.794ZM12.9035 26.7803L13.8433 27.122L13.8965 26.9755L13.9027 26.8198L12.9035 26.7803ZM12.9247 26.2428L13.9239 26.2823L13.9296 26.1392L13.8949 26.0002L12.9247 26.2428ZM12.921 26.2278L13.8911 25.9852L13.8239 25.7165L13.6281 25.5207L12.921 26.2278ZM12.9085 26.2153L13.6156 25.5082L13.5008 25.3934L13.3557 25.3209L12.9085 26.2153ZM13.062 25.2552L13.0483 25.2577L13.4062 27.2254L13.4199 27.2229L13.062 25.2552ZM12.7851 25.3446L12.6963 25.3884L13.5806 27.1822L13.6694 27.1385L12.7851 25.3446ZM12.9424 25.3047L12.9174 25.3097L13.3096 27.2709L13.3346 27.2659L12.9424 25.3047ZM13.3882 25.3288L13.3707 25.3238L12.8213 27.2468L12.8388 27.2518L13.3882 25.3288ZM13.5381 25.3884L13.4494 25.3446L12.5651 27.1385L12.6538 27.1822L13.5381 25.3884ZM13.3055 25.2871C13.1934 25.252 13.0077 25.2148 12.7858 25.261C12.5424 25.3117 12.3379 25.4461 12.1963 25.6231L13.7581 26.8725C13.6232 27.0411 13.4271 27.1704 13.1936 27.219C12.9817 27.2631 12.8077 27.2269 12.7089 27.196L13.3055 25.2871ZM12.0487 25.8764L12.0437 25.8889L13.9007 26.6317L13.9057 26.6192L12.0487 25.8764ZM11.973 26.2206L11.9518 26.7556L13.9502 26.835L13.9714 26.3L11.973 26.2206ZM11.9808 27.0378L11.9871 27.0628L13.9274 26.5777L13.9211 26.5527L11.9808 27.0378ZM12.1646 27.43L12.1771 27.4462L13.7623 26.2268L13.7498 26.2106L12.1646 27.43ZM12.39 27.6513L12.52 27.7438L13.6795 26.1142L13.5495 26.0217L12.39 27.6513ZM12.8421 27.8953L12.8608 27.9003L13.3761 25.9678L13.3574 25.9628L12.8421 27.8953ZM13.4347 27.8827L13.4497 27.8777L12.8173 25.9803L12.8023 25.9853L13.4347 27.8827ZM13.7132 27.7438L13.8432 27.6513L12.6837 26.0217L12.5537 26.1142L13.7132 27.7438ZM14.0635 27.4365L14.0785 27.4165L12.4785 26.2165L12.4635 26.2365L14.0635 27.4365ZM14.2519 27.0456L14.2569 27.0243L12.31 26.5663L12.305 26.5875L14.2519 27.0456ZM14.2827 26.7555L14.2614 26.2218L12.263 26.3013L12.2843 26.8351L14.2827 26.7555ZM14.2324 26.019C14.2024 25.8993 14.1355 25.7225 13.9814 25.5593C13.8152 25.3833 13.6036 25.2831 13.393 25.2507L13.0889 27.2274C12.8892 27.1967 12.6865 27.101 12.5274 26.9325C12.3804 26.7769 12.3187 26.6105 12.2921 26.5041L14.2324 26.019ZM13.4202 25.1094L13.404 25.1119L13.7079 27.0887L13.7242 27.0862L13.4202 25.1094ZM13.1068 25.2068L12.8756 25.3231L13.7739 27.11L14.0051 26.9938L13.1068 25.2068ZM12.6176 25.5094L12.6051 25.5219L14.0193 26.9362L14.0318 26.9237L12.6176 25.5094ZM12.3474 25.966L12.3437 25.9797L14.2732 26.5059L14.277 26.4921L12.3474 25.966ZM12.3093 26.2846L12.3318 26.8221L14.3301 26.7385L14.3076 26.201L12.3093 26.2846ZM12.4079 27.1649L12.4141 27.1799L14.2603 26.4106L14.254 26.3956L12.4079 27.1649ZM12.6787 27.5479L12.6887 27.5566L14.0057 26.0514L13.9957 26.0427L12.6787 27.5479ZM12.9273 27.7116L13.1785 27.8278L14.0184 26.0127L13.7671 25.8965L12.9273 27.7116ZM13.344 27.8874C13.4717 27.921 13.6647 27.9458 13.8853 27.8849C14.1199 27.8202 14.3034 27.6811 14.4273 27.52L12.8421 26.3006C12.9577 26.1503 13.131 26.0183 13.3535 25.9569C13.562 25.8994 13.7411 25.9238 13.8529 25.9532L13.344 27.8874ZM14.5962 27.185L14.6012 27.1675L12.6782 26.6181L12.6732 26.6356L14.5962 27.185ZM14.6382 26.8375L14.5957 26.07L12.5987 26.1806L12.6412 26.9481L14.6382 26.8375ZM14.5607 25.8577C14.4844 25.5827 14.2594 25.2461 13.8299 25.1316L13.3145 27.064C13.1439 27.0185 12.9789 26.9239 12.8479 26.7799C12.7234 26.6429 12.663 26.4984 12.6337 26.3929L14.5607 25.8577ZM13.1968 25.2451C12.9708 25.1081 12.7008 25.0638 12.4432 25.1211L12.877 27.0735C12.6319 27.1279 12.3751 27.0858 12.1602 26.9555L13.1968 25.2451ZM12.4432 25.1211C12.1854 25.1784 11.9597 25.3329 11.813 25.5526L13.4764 26.663C13.3369 26.872 13.1222 27.019 12.877 27.0735L12.4432 25.1211ZM11.7256 25.7138L11.7181 25.7313L13.5564 26.5192L13.5639 26.5017L11.7256 25.7138ZM11.6388 26.07L11.5963 26.8375L13.5932 26.9481L13.6357 26.1806L11.6388 26.07ZM11.5963 26.9483C11.6048 27.1011 11.6501 27.2996 11.7846 27.4896C11.9217 27.683 12.102 27.7981 12.2649 27.8591L12.9671 25.9865C13.1166 26.0425 13.2867 26.1501 13.4167 26.3335C13.5442 26.5135 13.5855 26.6995 13.5932 26.8373L11.5963 26.9483ZM12.7482 27.914L12.7669 27.9115L12.5025 25.9291L12.4838 25.9316L12.7482 27.914ZM13.0546 27.8278L13.3059 27.7116L12.4661 25.8965L12.2148 26.0127L13.0546 27.8278ZM13.5106 27.5849L13.5231 27.5749L12.2738 26.0131L12.2613 26.0231L13.5106 27.5849ZM13.8383 27.1358L13.8433 27.122L11.9637 26.4386L11.9587 26.4523L13.8383 27.1358ZM13.9027 26.8198L13.9239 26.2823L11.9255 26.2033L11.9043 26.7408L13.9027 26.8198ZM13.8949 26.0002L13.8911 25.9852L11.9508 26.4704L11.9546 26.4854L13.8949 26.0002ZM13.6281 25.5207L13.6156 25.5082L12.2014 26.9224L12.2139 26.9349L13.6281 25.5207ZM13.3557 25.3209L13.1257 25.2059L12.2313 26.9947L12.4613 27.1097L13.3557 25.3209Z" fill="black" mask="url(#path-1-inside-1_1483_5350)"/>
<path d="M13.7278 0.921377L13.7279 0.921398L24.2076 9.0724C24.2076 9.07243 24.2076 9.07246 24.2077 9.07248C24.7718 9.51168 24.4614 10.4165 23.7459 10.4165H22.4997H21.9997V10.9165V20.9163C21.9997 21.4467 21.789 21.9554 21.4139 22.3305C21.0388 22.7056 20.5301 22.9163 19.9997 22.9163H15.4998V15.9164C15.4998 15.1208 15.1838 14.3577 14.6212 13.7951C14.0586 13.2325 13.2955 12.9165 12.4999 12.9165C11.7042 12.9165 10.9412 13.2325 10.3786 13.7951C9.81599 14.3577 9.49993 15.1208 9.49993 15.9164V22.9163H5.00003C4.46961 22.9163 3.96091 22.7056 3.58585 22.3305C3.21079 21.9554 3.00008 21.4467 3.00008 20.9163V10.9165V10.4165H2.50008H1.25385C0.539741 10.4165 0.226765 9.5129 0.792503 9.07092C0.792595 9.07084 0.792687 9.07077 0.792779 9.0707L11.2719 0.921421L11.2719 0.921377C11.623 0.648275 12.0551 0.5 12.4999 0.5C12.9447 0.5 13.3768 0.648275 13.7278 0.921377Z" stroke="current"/>
</svg>
