<svg width="23" height="23" viewBox="0 0 23 23" fill="none" xmlns="http://www.w3.org/2000/svg">
<path d="M16.75 5.75C16.75 8.65073 14.4007 11 11.5 11C8.59927 11 6.25 8.65073 6.25 5.75C6.25 2.84927 8.59927 0.5 11.5 0.5C14.4007 0.5 16.75 2.84927 16.75 5.75ZM0.5 20.125C0.5 19.3527 0.882904 18.6392 1.59625 17.9808C2.313 17.3193 3.32954 16.7478 4.49664 16.2802C6.83165 15.3448 9.64344 14.875 11.5 14.875C13.3566 14.875 16.1684 15.3448 18.5034 16.2802C19.6705 16.7478 20.687 17.3193 21.4037 17.9808C22.1171 18.6392 22.5 19.3527 22.5 20.125V21.5625C22.5 22.077 22.077 22.5 21.5625 22.5H1.4375C0.923017 22.5 0.5 22.077 0.5 21.5625V20.125Z" stroke="current"/>
</svg>
