<svg width="18" height="18" viewBox="0 0 18 18" fill="none" xmlns="http://www.w3.org/2000/svg">
<path d="M0.329933 4.52012L4.51941 0.330854C4.62392 0.225984 4.74811 0.142776 4.88485 0.086001C5.02159 0.0292257 5.16819 0 5.31625 0C5.46431 0 5.61091 0.0292257 5.74765 0.086001C5.88439 0.142776 6.00857 0.225984 6.11308 0.330854L17.67 11.8909C17.7749 11.995 17.8581 12.1188 17.9148 12.2553C17.9714 12.3917 18.0004 12.5381 18 12.6859V16.8751C18 17.1735 17.8815 17.4596 17.6705 17.6705C17.4595 17.8815 17.1734 18 16.8751 18H12.6856C12.3875 18 12.1015 17.8816 11.8906 17.671L0.330871 6.11089C0.225996 6.00639 0.142784 5.88221 0.0860053 5.74548C0.029227 5.60874 4.41252e-08 5.46215 4.41252e-08 5.3141C4.41252e-08 5.16605 0.029227 5.01945 0.0860053 4.88272C0.142784 4.74599 0.225996 4.62181 0.330871 4.5173L0.329933 4.52012ZM17.0944 12.3756L8.62546 3.90612L6.53119 6.00122L15.0001 14.4697L17.0944 12.3756ZM17.25 16.8751V13.2811L15.2654 15.2656L13.2809 17.2501H16.8751C16.9745 17.2501 17.0699 17.2106 17.1402 17.1403C17.2105 17.0699 17.25 16.9746 17.25 16.8751ZM12.3753 17.0945L14.4695 15.0003L6.00059 6.53085L3.90632 8.62595L12.3753 17.0945ZM0.860532 5.58032L3.37572 8.09538L8.09486 3.37648L5.58061 0.861425C5.54579 0.826562 5.50443 0.798905 5.45891 0.780036C5.41338 0.761166 5.36459 0.751453 5.31531 0.751453C5.26603 0.751453 5.21724 0.761166 5.17172 0.780036C5.12619 0.798905 5.08484 0.826562 5.05001 0.861425L0.860532 5.04975C0.825667 5.08457 0.798009 5.12593 0.779138 5.17145C0.760268 5.21697 0.750555 5.26576 0.750555 5.31504C0.750555 5.36431 0.760268 5.4131 0.779138 5.45862C0.798009 5.50414 0.825667 5.5455 0.860532 5.58032Z" fill="#0500FF"/>
</svg>
