<svg width="30" height="30" viewBox="0 0 30 30" fill="none" xmlns="http://www.w3.org/2000/svg">
<path d="M22.083 16.4163H16.4163V22.083H13.583V16.4163H7.91634V13.583H13.583V7.91634H16.4163V13.583H22.083M14.9997 0.833008C13.1393 0.833008 11.2971 1.19944 9.57833 1.91138C7.85955 2.62332 6.29783 3.66683 4.98233 4.98233C2.32556 7.63909 0.833008 11.2424 0.833008 14.9997C0.833008 18.7569 2.32556 22.3603 4.98233 25.017C6.29783 26.3325 7.85955 27.376 9.57833 28.088C11.2971 28.7999 13.1393 29.1663 14.9997 29.1663C18.7569 29.1663 22.3603 27.6738 25.017 25.017C27.6738 22.3603 29.1663 18.7569 29.1663 14.9997C29.1663 13.1393 28.7999 11.2971 28.088 9.57833C27.376 7.85955 26.3325 6.29783 25.017 4.98233C23.7015 3.66683 22.1398 2.62332 20.421 1.91138C18.7022 1.19944 16.8601 0.833008 14.9997 0.833008Z" fill="#0500FF"/>
</svg>
