<svg width="24" height="24" viewBox="0 0 24 24" fill="none" xmlns="http://www.w3.org/2000/svg">
<path d="M10.0962 1C8.29711 1 6.53846 1.53348 5.0426 2.53298C3.54675 3.53248 2.38087 4.9531 1.69241 6.6152C1.00394 8.27731 0.823807 10.1062 1.17478 11.8707C1.52576 13.6352 2.39209 15.256 3.66421 16.5281C4.93633 17.8002 6.5571 18.6665 8.32159 19.0175C10.0861 19.3685 11.915 19.1884 13.5771 18.4999C15.2392 17.8114 16.6598 16.6456 17.6593 15.1497C18.6588 13.6538 19.1923 11.8952 19.1923 10.0962C19.1922 7.68375 18.2338 5.3702 16.5279 3.66437C14.8221 1.95854 12.5086 1.00015 10.0962 1Z" stroke="black" stroke-miterlimit="10"/>
<path d="M16.6543 16.6543L23.0005 23.0005" stroke="black" stroke-miterlimit="10" stroke-linecap="round"/>
</svg>
