<svg width="21" height="21" viewBox="0 0 21 21" fill="none" xmlns="http://www.w3.org/2000/svg">
<path d="M19.1389 12.6362L19.0889 12.1392L19.0739 12.1402L19.0569 12.1432L19.1389 12.6362ZM19.1389 12.6362L19.1889 13.1343L19.2059 13.1322L19.2219 13.1292L19.1389 12.6362ZM15.0987 18.1187L15.4157 17.7317L15.4107 17.7287L15.0987 18.1187ZM15.0987 18.1187L14.7817 18.5058L14.7867 18.5098L15.0987 18.1187ZM5.90228 18.1187L5.58527 17.7327L5.57827 17.7387L5.57027 17.7457L5.90228 18.1187ZM5.90228 18.1187L6.2193 18.5068L6.2273 18.4998L6.2343 18.4938L5.90228 18.1187ZM1.86109 8.3638V7.86375H1.83709L1.81209 7.86575L1.86109 8.3638ZM1.86109 8.3638V8.86384H1.88609L1.91109 8.86084L1.86109 8.3638ZM13.1326 1.81017C13.1178 1.62882 13.0968 1.44804 13.0696 1.26812C13.0472 1.10881 12.9992 0.954155 12.9276 0.810077L12.0386 1.26912C12.0486 1.28912 12.0656 1.32913 12.0826 1.43314C12.1016 1.54315 12.1156 1.68616 12.1386 1.90918L13.1326 1.81017ZM13.3286 3.01329C13.3166 2.99829 13.2806 2.93728 13.2416 2.72326C13.1949 2.42027 13.1599 2.11571 13.1346 1.81017L12.1386 1.90918C12.1786 2.31022 12.2116 2.64225 12.2576 2.90028C12.3026 3.1523 12.3726 3.40932 12.5336 3.62034L13.3286 3.01329ZM13.7927 3.20531C13.7052 3.21707 13.6163 3.2055 13.5348 3.17178C13.4533 3.13805 13.3822 3.08337 13.3286 3.01329L12.5326 3.61934C12.6932 3.82995 12.9067 3.99428 13.1514 4.09563C13.396 4.19699 13.6632 4.23176 13.9257 4.1964L13.7927 3.20531ZM14.7807 2.49224C14.4557 2.75926 14.2337 2.94028 14.0587 3.06129C13.8797 3.1853 13.8107 3.2023 13.7927 3.20531L13.9257 4.1964C14.1877 4.1614 14.4187 4.02938 14.6297 3.88237C14.8447 3.73236 15.1017 3.52234 15.4147 3.26631L14.7807 2.49224ZM15.6327 1.93118C15.4727 1.98219 15.3377 2.0632 15.2097 2.15421C15.0857 2.24221 14.9447 2.35822 14.7807 2.49224L15.4147 3.26631C15.5877 3.1243 15.6997 3.03329 15.7898 2.96928C15.8347 2.93369 15.8846 2.90472 15.9378 2.88327L15.6327 1.93118ZM16.6858 1.98319C16.3526 1.839 15.9785 1.82052 15.6327 1.93118L15.9378 2.88327C16.0528 2.84685 16.1771 2.85324 16.2878 2.90128L16.6858 1.98319ZM17.4778 2.62725C17.3278 2.47724 17.1988 2.34722 17.0848 2.24721C16.9668 2.13842 16.8321 2.04928 16.6858 1.98319L16.2878 2.90128C16.3088 2.91028 16.3468 2.93128 16.4268 3.00129C16.5098 3.07329 16.6118 3.1753 16.7708 3.33432L17.4778 2.62725ZM18.3709 3.52034L17.4778 2.62725L16.7708 3.33432L17.6638 4.2274L18.3709 3.52034ZM19.0149 4.31241C18.9485 4.16606 18.859 4.03133 18.7499 3.91337C18.6499 3.79936 18.5199 3.67035 18.3709 3.52034L17.6638 4.2274C17.8228 4.38642 17.9239 4.48843 17.9979 4.57144C18.0679 4.65144 18.0879 4.68945 18.0969 4.71045L19.0149 4.31241ZM19.0669 5.36551C19.1776 5.01975 19.1591 4.64559 19.0149 4.31241L18.0969 4.71045C18.1446 4.82126 18.1506 4.94557 18.1139 5.06048L19.0669 5.36551ZM18.5059 6.21759C18.6399 6.05358 18.7559 5.91256 18.8439 5.78855C18.9339 5.66054 19.0159 5.52553 19.0669 5.36551L18.1139 5.06048C18.0927 5.11362 18.0641 5.16346 18.0289 5.2085C17.9336 5.33644 17.8346 5.46151 17.7318 5.58353L18.5059 6.21759ZM17.7928 7.20569C17.7958 7.18769 17.8128 7.11868 17.9369 6.93966C18.0579 6.76464 18.2389 6.54262 18.5059 6.21759L17.7318 5.58353C17.4758 5.89656 17.2648 6.15359 17.1158 6.36861C16.9688 6.57863 16.8368 6.81065 16.8018 7.07267L17.7928 7.20569ZM17.9849 7.66973C17.9148 7.61619 17.8601 7.54506 17.8264 7.46356C17.7927 7.38206 17.7811 7.2931 17.7928 7.20569L16.8018 7.07267C16.7666 7.335 16.8015 7.60196 16.9028 7.84646C17.0042 8.09096 17.1684 8.30429 17.3788 8.46481L17.9849 7.66973ZM19.1879 7.86475C18.7689 7.82274 18.4849 7.79474 18.2749 7.75674C18.0609 7.71774 17.9999 7.68173 17.9849 7.66973L17.3788 8.46481C17.5888 8.62482 17.8458 8.69483 18.0989 8.74083C18.3559 8.78684 18.6869 8.82084 19.0889 8.86084L19.1879 7.86475ZM20.188 8.07077C20.0439 7.99918 19.8892 7.95122 19.7299 7.92876C19.5799 7.90375 19.3979 7.88575 19.1879 7.86475L19.0879 8.85984C19.3119 8.88284 19.4549 8.89685 19.5649 8.91585C19.6214 8.92267 19.6766 8.93748 19.7289 8.95985L20.188 8.07077ZM20.895 8.85184C20.7615 8.51456 20.5103 8.23708 20.188 8.07077L19.7289 8.95985C19.8365 9.01514 19.9203 9.10752 19.965 9.21988L20.895 8.85184ZM21 9.86694C21 9.65592 21 9.4729 20.99 9.32089C20.9836 9.16046 20.9516 9.0021 20.895 8.85184L19.965 9.21988C19.9729 9.24088 19.9849 9.28288 19.992 9.38789C19.9994 9.54779 20.0021 9.70788 20 9.86794L21 9.86694ZM21 11.1311V9.86694H20V11.1311H21ZM20.895 12.1452C20.957 11.9891 20.98 11.8331 20.99 11.6761C21 11.5251 21 11.3421 21 11.1311H20C20 11.3551 20 11.4991 19.992 11.6101C19.991 11.6671 19.9819 11.7237 19.965 11.7781L20.895 12.1452ZM20.188 12.9272C20.5105 12.7607 20.7617 12.4828 20.895 12.1452L19.965 11.7781C19.9203 11.8905 19.8365 11.9829 19.7289 12.0381L20.188 12.9272ZM19.1879 13.1333C19.3979 13.1122 19.5809 13.0932 19.7299 13.0682C19.8849 13.0432 20.038 13.0042 20.187 12.9282L19.7289 12.0381C19.6766 12.0605 19.6214 12.0753 19.5649 12.0822C19.4549 12.1012 19.3119 12.1152 19.0889 12.1382L19.1879 13.1333ZM17.9859 13.3283C18.0009 13.3163 18.0619 13.2793 18.2759 13.2413C18.4859 13.2033 18.7699 13.1743 19.1879 13.1333L19.0889 12.1382C18.6879 12.1782 18.3559 12.2102 18.0979 12.2572C17.8458 12.3022 17.5898 12.3722 17.3788 12.5322L17.9859 13.3283ZM17.7928 13.7923C17.7812 13.7048 17.7929 13.6158 17.8268 13.5343C17.8607 13.4528 17.9156 13.3817 17.9859 13.3283L17.3788 12.5322C17.1682 12.6928 17.0039 12.9063 16.9026 13.151C16.8012 13.3957 16.7664 13.6628 16.8018 13.9253L17.7928 13.7923ZM18.5059 14.7804C18.3078 14.5465 18.118 14.3057 17.9369 14.0583C17.8128 13.8803 17.7958 13.8103 17.7928 13.7923L16.8028 13.9263C16.8378 14.1884 16.9698 14.4184 17.1158 14.6294C17.2658 14.8434 17.4758 15.1014 17.7318 15.4135L18.5059 14.7804ZM19.0669 15.6325C19.0158 15.4801 18.9405 15.3369 18.8439 15.2084C18.7356 15.0624 18.6228 14.9196 18.5059 14.7804L17.7318 15.4135C17.8739 15.5875 17.9649 15.6985 18.0289 15.7895C18.064 15.8342 18.0926 15.8837 18.1139 15.9365L19.0669 15.6325ZM19.0149 16.6856C19.1591 16.3524 19.1776 15.9783 19.0669 15.6325L18.1139 15.9365C18.1509 16.0517 18.1448 16.1765 18.0969 16.2876L19.0149 16.6856ZM18.3719 17.4767C18.5209 17.3277 18.6499 17.1986 18.7499 17.0846C18.8539 16.9656 18.9479 16.8406 19.0149 16.6856L18.0969 16.2876C18.0703 16.3381 18.0366 16.3846 17.9969 16.4256C17.8893 16.5435 17.7783 16.6583 17.6638 16.7696L18.3719 17.4767ZM17.4778 18.3708L18.3719 17.4767L17.6638 16.7696L16.7708 17.6637L17.4778 18.3708ZM16.6858 19.0138C16.8398 18.9468 16.9658 18.8538 17.0848 18.7498C17.1988 18.6498 17.3278 18.5198 17.4778 18.3697L16.7708 17.6637C16.6118 17.8227 16.5098 17.9237 16.4268 17.9967C16.3855 18.0365 16.3387 18.0702 16.2878 18.0967L16.6858 19.0138ZM15.6327 19.0668C15.9786 19.1772 16.3528 19.1583 16.6858 19.0138L16.2878 18.0967C16.177 18.1444 16.0527 18.1505 15.9378 18.1137L15.6327 19.0668ZM14.7807 18.5048C14.9447 18.6388 15.0857 18.7548 15.2097 18.8428C15.3377 18.9338 15.4727 19.0158 15.6327 19.0668L15.9378 18.1137C15.8846 18.0926 15.8348 18.064 15.7898 18.0287C15.6618 17.9331 15.5367 17.8338 15.4147 17.7307L14.7807 18.5048ZM13.7927 17.7927C13.8107 17.7947 13.8807 17.8127 14.0587 17.9367C14.2337 18.0577 14.4557 18.2387 14.7807 18.5048L15.4147 17.7307C15.1017 17.4757 14.8447 17.2646 14.6297 17.1146C14.4197 16.9686 14.1877 16.8366 13.9257 16.8016L13.7927 17.7927ZM13.3286 17.9847C13.3822 17.9146 13.4533 17.8599 13.5348 17.8262C13.6163 17.7925 13.7052 17.7809 13.7927 17.7927L13.9257 16.8016C13.6634 16.7663 13.3966 16.801 13.1521 16.9022C12.9076 17.0034 12.6942 17.1674 12.5336 17.3777L13.3286 17.9847ZM13.1336 19.1878C13.1756 18.7688 13.2036 18.4848 13.2416 18.2747C13.2806 18.0607 13.3166 17.9997 13.3286 17.9847L12.5336 17.3777C12.3736 17.5877 12.3036 17.8457 12.2576 18.0977C12.2116 18.3547 12.1776 18.6858 12.1376 19.0878L13.1336 19.1878ZM12.9276 20.1879C13.0046 20.0379 13.0426 19.8849 13.0686 19.7299C13.0946 19.5799 13.1126 19.3978 13.1336 19.1878L12.1376 19.0878C12.1237 19.2474 12.106 19.4064 12.0826 19.5649C12.0758 19.6213 12.0609 19.6766 12.0386 19.7289L12.9276 20.1879ZM12.1466 20.895C12.4838 20.7615 12.7613 20.5103 12.9276 20.1879L12.0386 19.7289C11.9833 19.8364 11.8909 19.9203 11.7786 19.9649L12.1466 20.895ZM11.1315 21C11.3425 21 11.5255 21 11.6776 20.99C11.8336 20.98 11.9906 20.957 12.1466 20.895L11.7786 19.9649C11.7241 19.9818 11.6676 19.9909 11.6106 19.9919C11.5005 19.9999 11.3555 19.9999 11.1305 19.9999L11.1315 21ZM9.86747 21H11.1315L11.1305 19.9999H9.86747V21ZM8.85242 20.895C9.00943 20.957 9.16544 20.98 9.32244 20.99C9.47345 21 9.65646 21 9.86747 21V19.9999C9.64346 19.9999 9.49945 19.9999 9.38845 19.9919C9.33144 19.9909 9.27487 19.9818 9.22044 19.9649L8.85242 20.895ZM8.07138 20.1879C8.23769 20.5103 8.51516 20.7615 8.85242 20.895L9.22044 19.9649C9.10809 19.9203 9.01571 19.8364 8.96043 19.7289L8.07138 20.1879ZM7.86537 19.1878C7.88538 19.3992 7.90671 19.5799 7.92938 19.7299C7.95538 19.8849 7.99438 20.0379 8.07138 20.1879L8.96043 19.7289C8.93806 19.6766 8.92324 19.6213 8.91642 19.5649C8.89301 19.4068 8.87433 19.248 8.86042 19.0888L7.86537 19.1878ZM7.67036 17.9847C7.68237 17.9997 7.71837 18.0607 7.75737 18.2747C7.79537 18.4848 7.82337 18.7698 7.86537 19.1878L8.86042 19.0888C8.82042 18.6878 8.78742 18.3557 8.74142 18.0977C8.69641 17.8457 8.62641 17.5887 8.4654 17.3777L7.67036 17.9847ZM7.20634 17.7927C7.29375 17.7809 7.38271 17.7925 7.46421 17.8262C7.5457 17.8599 7.61682 17.9146 7.67036 17.9847L8.4654 17.3777C8.3049 17.1672 8.09157 17.004 7.84708 16.9026C7.6026 16.8013 7.33565 16.7664 7.07334 16.8016L7.20634 17.7927ZM6.2183 18.5058C6.54331 18.2387 6.76532 18.0577 6.94033 17.9367C7.11934 17.8127 7.18834 17.7947 7.20634 17.7927L7.07334 16.8016C6.81132 16.8366 6.58031 16.9686 6.3693 17.1156C6.15429 17.2646 5.89728 17.4757 5.58427 17.7317L6.2183 18.5058ZM5.36626 19.0668C5.52626 19.0158 5.66127 18.9348 5.78928 18.8438C5.91328 18.7558 6.05429 18.6398 6.2183 18.5058L5.58427 17.7317C5.46225 17.8344 5.33719 17.9335 5.20925 18.0287C5.16421 18.064 5.11437 18.0926 5.06124 18.1137L5.36626 19.0668ZM4.31321 19.0158C4.64637 19.16 5.02051 19.1775 5.36626 19.0668L5.06124 18.1137C4.94634 18.1505 4.82203 18.1444 4.71122 18.0967L4.31321 19.0158ZM3.52117 18.3708C3.67117 18.5208 3.80018 18.6508 3.91419 18.7508C4.03219 18.8538 4.1592 18.9488 4.31321 19.0158L4.71122 18.0967C4.66035 18.0702 4.61353 18.0365 4.57222 17.9967C4.45425 17.8892 4.33953 17.7781 4.2282 17.6637L3.52117 18.3708ZM2.62812 17.4777L3.52117 18.3708L4.2282 17.6637L3.33516 16.7706L2.62812 17.4777ZM1.98409 16.6856C2.0511 16.8396 2.1451 16.9656 2.24911 17.0846C2.34911 17.1986 2.47912 17.3277 2.62812 17.4777L3.33516 16.7706C3.22041 16.6593 3.10902 16.5446 3.00114 16.4266C2.96133 16.3852 2.92766 16.3384 2.90114 16.2876L1.98409 16.6856ZM1.93209 15.6325C1.82143 15.9783 1.83991 16.3524 1.98409 16.6856L2.90114 16.2876C2.85311 16.1769 2.84771 16.0525 2.88414 15.9375L1.93209 15.6325ZM2.49312 14.7804C2.35911 14.9444 2.24311 15.0854 2.1551 15.2094C2.05862 15.3376 1.98333 15.4805 1.93209 15.6325L2.88414 15.9375C2.90558 15.8843 2.93455 15.8345 2.97014 15.7895C3.03414 15.6995 3.12515 15.5875 3.26716 15.4145L2.49312 14.7804ZM3.20615 13.7923C3.20315 13.8103 3.18615 13.8793 3.06215 14.0583C2.94014 14.2334 2.76013 14.4554 2.49312 14.7804L3.26716 15.4145C3.52317 15.1014 3.73418 14.8444 3.88318 14.6294C4.03019 14.4194 4.1622 14.1874 4.1972 13.9253L3.20615 13.7923ZM3.01414 13.3283C3.08423 13.3818 3.1389 13.4529 3.17262 13.5344C3.20635 13.6159 3.21791 13.7049 3.20615 13.7923L4.1972 13.9253C4.23237 13.663 4.19751 13.396 4.09617 13.1515C3.99483 12.907 3.83061 12.6937 3.62017 12.5332L3.01414 13.3283ZM1.81109 13.1343C2.23011 13.1753 2.51412 13.2033 2.72413 13.2413C2.93814 13.2803 2.99914 13.3163 3.01414 13.3283L3.62017 12.5322C3.41016 12.3722 3.15315 12.3022 2.90014 12.2572C2.64313 12.2112 2.31211 12.1772 1.91009 12.1372L1.81109 13.1343ZM0.811039 12.9272C0.961046 13.0042 1.11405 13.0422 1.26906 13.0682C1.41907 13.0942 1.60008 13.1132 1.81109 13.1343L1.91109 12.1382C1.75156 12.1243 1.59248 12.1056 1.43407 12.0822C1.37759 12.0753 1.32237 12.0605 1.27006 12.0381L0.811039 12.9272ZM0.104005 12.1452C0.237298 12.4828 0.488502 12.7607 0.811039 12.9272L1.27006 12.0381C1.16254 11.9829 1.0787 11.8905 1.03405 11.7781L0.104005 12.1452ZM0 11.1331C0 11.3441 -9.31367e-09 11.5271 0.0100005 11.6791C0.0164726 11.8392 0.0485472 11.9972 0.105005 12.1472L1.03505 11.7801C1.01811 11.7257 1.00902 11.6691 1.00805 11.6121C1.00058 11.4522 0.997912 11.2921 1.00005 11.1321L0 11.1331ZM0 9.86894V11.1331H1.00005V9.86894H0ZM0.105005 8.85384C0.0483377 9.00442 0.0162597 9.16313 0.0100005 9.32389C-9.31367e-09 9.4749 0 9.65792 0 9.86894H1.00005C1.00005 9.64492 1.00005 9.50091 1.00805 9.38989C1.00902 9.33289 1.01811 9.27632 1.03505 9.22188L0.105005 8.85384ZM0.812039 8.07277C0.489683 8.23908 0.238502 8.51656 0.105005 8.85384L1.03505 9.22188C1.0797 9.10952 1.16354 9.01714 1.27106 8.96185L0.812039 8.07277ZM1.81209 7.86575C1.60074 7.88575 1.42007 7.90809 1.27006 7.93076C1.11076 7.95322 0.95611 8.00117 0.812039 8.07277L1.27106 8.96185C1.29106 8.95185 1.33106 8.93485 1.43507 8.91785C1.54507 8.89885 1.68808 8.88485 1.91109 8.86184L1.81209 7.86575ZM3.01514 7.67173C3.00014 7.68373 2.93914 7.71974 2.72513 7.75874C2.51512 7.79674 2.23111 7.82375 1.81209 7.86575L1.91109 8.86184C2.31211 8.82184 2.64513 8.78884 2.90214 8.74283C3.15515 8.69783 3.41216 8.62782 3.62217 8.46681L3.01514 7.67173ZM3.20715 7.20769C3.21891 7.2951 3.20735 7.38406 3.17362 7.46556C3.1399 7.54706 3.08523 7.61819 3.01514 7.67173L3.62217 8.46681C3.83242 8.30618 3.99645 8.09279 4.09762 7.8483C4.19878 7.60381 4.23348 7.33591 4.1982 7.07367L3.20715 7.20769ZM2.49412 6.21859C2.76113 6.54462 2.94214 6.76664 3.06415 6.94166C3.18815 7.12068 3.20415 7.18968 3.20715 7.20769L4.1982 7.07367C4.1632 6.81165 4.03119 6.58163 3.88418 6.37061C3.73518 6.15559 3.52417 5.89856 3.26816 5.58553L2.49412 6.21859ZM1.93309 5.36651C1.98309 5.52653 2.0651 5.66254 2.1561 5.79055C2.24411 5.91356 2.36011 6.05558 2.49412 6.21859L3.26816 5.58553C3.16542 5.46318 3.06637 5.33778 2.97114 5.2095C2.93563 5.16483 2.90667 5.11533 2.88514 5.06248L1.93309 5.36651ZM1.98509 4.31441C1.84116 4.64729 1.82269 5.02105 1.93309 5.36651L2.88514 5.06248C2.84871 4.94745 2.85511 4.82313 2.90314 4.71245L1.98509 4.31441ZM2.62913 3.52234C2.47912 3.67135 2.34911 3.80036 2.24911 3.91537C2.14032 4.0334 2.05118 4.16813 1.98509 4.31441L2.90314 4.71245C2.92974 4.66192 2.96341 4.61445 3.00314 4.57344C3.11019 4.45499 3.22126 4.34025 3.33616 4.2294L2.62913 3.52234ZM3.52217 2.62825L2.62913 3.52234L3.33616 4.2294L4.2292 3.33532L3.52217 2.62825ZM4.31421 1.98519C4.16793 2.05128 4.03321 2.14042 3.91519 2.24921C3.80118 2.34922 3.67117 2.47824 3.52217 2.62825L4.2292 3.33532C4.38821 3.1773 4.49021 3.07529 4.57322 3.00229C4.65322 2.93228 4.69122 2.91228 4.71222 2.90228L4.31421 1.98519ZM5.36726 1.93218C5.02139 1.82184 4.64724 1.84067 4.31421 1.98519L4.71222 2.90228C4.8229 2.85424 4.94722 2.84885 5.06224 2.88528L5.36726 1.93218ZM6.2193 2.49424C6.05529 2.36022 5.91428 2.24421 5.79028 2.15621C5.66217 2.05937 5.51934 1.98373 5.36726 1.93218L5.06224 2.88528C5.11537 2.90641 5.16521 2.93504 5.21025 2.97028C5.30025 3.03529 5.41226 3.1263 5.58627 3.26831L6.2193 2.49424ZM7.20734 3.20731C7.18934 3.20431 7.12034 3.1873 6.94133 3.06329C6.694 2.88185 6.45317 2.69271 6.2193 2.49424L5.58627 3.26831C5.89828 3.52434 6.15629 3.73536 6.3703 3.88437C6.58031 4.03038 6.81232 4.1624 7.07434 4.1984L7.20734 3.20731ZM7.67136 3.01429C7.61794 3.08456 7.54686 3.13943 7.46536 3.17333C7.38386 3.20723 7.29484 3.21896 7.20734 3.20731L7.07434 4.1984C7.33672 4.23387 7.60381 4.19826 7.84848 4.09708C8.09316 3.9959 8.30669 3.83177 8.4674 3.62135L7.67136 3.01429ZM7.86637 1.81217C7.82437 2.23021 7.79637 2.51524 7.75837 2.72426C7.71937 2.93828 7.68336 2.99929 7.67136 3.01429L8.4674 3.62135C8.62741 3.41133 8.69741 3.1543 8.74242 2.90128C8.78842 2.64425 8.82242 2.31322 8.86242 1.91118L7.86637 1.81217ZM8.07238 0.812077C7.99538 0.962092 7.95638 1.11511 7.93038 1.27012C7.90538 1.42014 7.88738 1.60115 7.86637 1.81217L8.86142 1.91218C8.87531 1.75264 8.89399 1.59356 8.91742 1.43514C8.92424 1.37866 8.93906 1.32343 8.96143 1.27112L8.07238 0.812077ZM8.85442 0.10501C8.51661 0.238557 8.23874 0.489149 8.07238 0.812077L8.96143 1.27112C9.01672 1.1636 9.10909 1.07975 9.22144 1.0351L8.85442 0.10501ZM9.86847 0C9.65746 0 9.47445 -9.31411e-09 9.32244 0.0100009C9.16236 0.0164734 9.00435 0.0485494 8.85442 0.10501L9.22144 1.0351C9.27587 1.01816 9.33245 1.00907 9.38945 1.0081C9.49945 1.0001 9.64446 1.0001 9.86947 1.0001L9.86847 0ZM11.1325 0H9.86847V1.0001H11.1325V0ZM12.1476 0.10501C11.997 0.0483399 11.8383 0.0162605 11.6776 0.0100009C11.5265 -9.31411e-09 11.3435 0 11.1325 0V1.0001C11.3565 1.0001 11.5005 1.0001 11.6116 1.0081C11.6686 1.00907 11.7251 1.01816 11.7796 1.0351L12.1476 0.10501ZM12.9286 0.812077C12.7621 0.489526 12.4842 0.23831 12.1466 0.10501L11.7796 1.0351C11.8919 1.07975 11.9843 1.1636 12.0396 1.27112L12.9286 0.812077ZM14.0007 10.5C14.0007 11.4283 13.6319 12.3187 12.9755 12.9751C12.3191 13.6315 11.4288 14.0003 10.5005 14.0003V15.0004C11.694 15.0004 12.8387 14.5263 13.6826 13.6823C14.5266 12.8383 15.0007 11.6936 15.0007 10.5H14.0007ZM10.5005 6.99967C11.4288 6.99967 12.3191 7.36845 12.9755 8.02489C13.6319 8.68133 14.0007 9.57165 14.0007 10.5H15.0007C15.0007 9.30641 14.5266 8.16171 13.6826 7.31772C12.8387 6.47372 11.694 5.99957 10.5005 5.99957V6.99967ZM7.00033 10.5C7.00033 9.57165 7.3691 8.68133 8.02551 8.02489C8.68192 7.36845 9.5722 6.99967 10.5005 6.99967V5.99957C9.30697 5.99957 8.16232 6.47372 7.31837 7.31772C6.47441 8.16171 6.00029 9.30641 6.00029 10.5H7.00033ZM10.5005 14.0003C9.5722 14.0003 8.68192 13.6315 8.02551 12.9751C7.3691 12.3187 7.00033 11.4283 7.00033 10.5H6.00029C6.00029 11.6936 6.47441 12.8383 7.31837 13.6823C8.16232 14.5263 9.30697 15.0004 10.5005 15.0004V14.0003Z" fill="#0500FF"/>
</svg>
