<svg width="27" height="27" viewBox="0 0 27 27" fill="none" xmlns="http://www.w3.org/2000/svg">
<path d="M7.95008 6.51128C8.48993 5.17912 9.32234 3.98228 10.3886 3.01084C11.6004 1.90675 13.0741 1.13038 14.6701 0.755331C16.266 0.380278 17.9313 0.418964 19.5081 0.86772C21.0849 1.31648 22.521 2.16043 23.6802 3.31961C24.8395 4.47878 25.6835 5.91476 26.1323 7.49145C26.581 9.06814 26.6197 10.7333 26.2447 12.3291C25.8696 13.925 25.0932 15.3986 23.989 16.6103C23.0176 17.6764 21.8208 18.5087 20.4887 19.0486C20.4461 18.8192 20.3984 18.5908 20.3456 18.3636C21.1344 18.0313 21.8722 17.5872 22.536 17.0443L22.9636 16.6944L22.5729 16.3037L10.6969 4.42846L10.3062 4.0378L9.9564 4.46541C9.41349 5.129 8.96937 5.86663 8.63712 6.65531C8.4092 6.60219 8.18013 6.55416 7.95008 6.51128ZM17.7185 9.76877L17.3653 10.1223L17.7187 10.4757L23.0592 15.8159L23.4492 16.2059L23.7992 15.7795C24.6138 14.7871 25.2042 13.6301 25.5299 12.3881C25.8555 11.1461 25.9087 9.84837 25.6858 8.58387L25.5653 7.90014L24.955 8.23116C24.3111 8.58043 23.5726 8.77827 22.7865 8.77827H22.7864C21.8383 8.77847 20.9137 8.4834 20.141 7.93405L19.7964 7.68906L19.4975 7.98816L17.7185 9.76877ZM23.7995 4.46513L23.4496 4.03809L23.0592 4.42846L20.7181 6.76941L20.2626 7.22481L20.8167 7.55313C21.3935 7.89489 22.0686 8.09049 22.7865 8.09049C23.6098 8.09049 24.3741 7.83252 25.0018 7.39468L25.328 7.16718L25.1797 6.79818C24.8409 5.95486 24.3755 5.16813 23.7995 4.46513ZM18.2228 4.2151V4.21493C18.2228 3.42892 18.4207 2.69043 18.77 2.04657L19.101 1.43626L18.4173 1.31574C17.1527 1.09285 15.8549 1.14604 14.6128 1.47167C13.3707 1.79729 12.2137 2.38765 11.2212 3.20226L10.7948 3.55225L11.1849 3.94232L16.5253 9.28247L16.8791 9.63616L17.2326 9.2823L19.0116 7.50169L19.31 7.20301L19.0656 6.85878C18.517 6.08638 18.2225 5.16243 18.2228 4.2151ZM19.6045 2.00031C19.1524 2.6504 18.9103 3.42338 18.9107 4.21521C18.9108 4.93243 19.1044 5.60602 19.4484 6.18506L19.7769 6.73814L20.2318 6.28328L22.5729 3.94232L22.9631 3.55219L22.5365 3.20221C21.8392 2.63009 21.0522 2.16142 20.2003 1.82141L19.8313 1.67413L19.6045 2.00031ZM7.35108 15.7859L7.35198 15.785C7.38392 15.753 7.42188 15.7276 7.46366 15.7103C7.50545 15.6929 7.55025 15.684 7.5955 15.684C7.64075 15.684 7.68554 15.6929 7.72733 15.7103C7.76912 15.7276 7.80708 15.753 7.83902 15.785L7.83947 15.7855L11.2152 19.1611C11.2799 19.2258 11.3163 19.3135 11.3163 19.405C11.3163 19.4965 11.2799 19.5842 11.2152 19.6489C11.1505 19.7136 11.0628 19.7499 10.9713 19.7499C10.8798 19.7499 10.792 19.7136 10.7273 19.6489L7.35153 16.2733L7.35109 16.2729C7.31905 16.2409 7.29364 16.203 7.27631 16.1612C7.25897 16.1194 7.25005 16.0746 7.25005 16.0294C7.25005 15.9842 7.25897 15.9394 7.27631 15.8976C7.29364 15.8558 7.31905 15.8179 7.35108 15.7859ZM2.53183 9.62217C2.17541 9.62217 1.83357 9.76375 1.58153 10.0158C1.32949 10.2678 1.18789 10.6096 1.18789 10.9661V13.4977C1.18789 16.7637 2.48539 19.896 4.79494 22.2054C7.1045 24.5148 10.2369 25.8122 13.5031 25.8122H16.0349C16.3914 25.8122 16.7332 25.6706 16.9852 25.4186C17.2373 25.1666 17.3789 24.8248 17.3789 24.4683V21.9366C17.3789 18.6706 16.0814 15.5384 13.7718 13.229C11.4623 10.9196 8.32986 9.62217 5.06367 9.62217H2.53183ZM0.5 10.9661C0.5 10.4272 0.71406 9.91047 1.0951 9.52946C1.47614 9.14844 1.99295 8.93438 2.53183 8.93438H5.06367C8.51232 8.93438 11.8197 10.3043 14.2583 12.7427C16.6968 15.1811 18.0668 18.4882 18.0668 21.9366V24.4683C18.0668 25.0071 17.8527 25.5239 17.4717 25.9049C17.0906 26.2859 16.5738 26.5 16.0349 26.5H13.5031C10.0545 26.5 6.74707 25.1301 4.30851 22.6917C1.86996 20.2533 0.5 16.9461 0.5 13.4977V10.9661Z" fill="#0500FF" stroke="#0500FF"/>
</svg>
