<svg width="19" height="18" viewBox="0 0 19 18" fill="none" xmlns="http://www.w3.org/2000/svg">
<path d="M12.3584 5.99201L12.0655 6.39725C12.2033 6.49682 12.3657 6.55648 12.5349 6.57002L12.5351 6.57004L18.3848 7.03532L13.9322 10.8269C13.9321 10.827 13.9321 10.8271 13.932 10.8271L13.9318 10.8273L14.256 11.208M12.3584 5.99201L14.9959 17.4184M12.3584 5.99201L12.0655 6.39724C11.9278 6.29771 11.82 6.16208 11.7543 6.00498L12.2155 5.81197L11.7542 6.00472L9.49924 0.616104M12.3584 5.99201L0.149063 7.29643M14.256 11.208C14.1965 11.2585 14.1522 11.3243 14.1279 11.3983C14.1036 11.4722 14.1002 11.5514 14.1182 11.627L15.524 17.476C15.5441 17.5577 15.5393 17.6436 15.5101 17.7226C15.4809 17.8016 15.4287 17.8701 15.3601 17.9195C15.2915 17.9689 15.2097 17.9968 15.1251 17.9997C15.0405 18.0027 14.9569 17.9805 14.885 17.936L9.72216 14.8006C9.65542 14.7602 9.57879 14.7388 9.50066 14.7388C9.42252 14.7388 9.34589 14.7602 9.27915 14.8006L4.1149 17.936C4.04305 17.9796 3.95983 18.001 3.87573 17.9976C3.79164 17.9942 3.71044 17.9661 3.64239 17.9169C3.57433 17.8677 3.52247 17.7996 3.49335 17.7211C3.46424 17.6426 3.45916 17.5573 3.47878 17.476L4.88308 11.627C4.90107 11.5514 4.89774 11.4722 4.87344 11.3983M14.256 11.208L18.8494 7.29643L14.256 11.208ZM4.87344 11.3983L5.34845 11.2422C5.40159 11.4039 5.40889 11.5771 5.36952 11.7427L5.36926 11.7438L4.00729 17.4164M4.87344 11.3983C4.84915 11.3243 4.80483 11.2585 4.74534 11.208M4.87344 11.3983L5.34845 11.2422C5.29535 11.0806 5.19867 10.9371 5.06939 10.8272L4.74534 11.208M4.00729 17.4164L3.85565 17.5085M4.00729 17.4164L3.96496 17.5927C3.96852 17.5775 3.96751 17.5617 3.96213 17.5472C3.9567 17.5325 3.94722 17.5203 3.93538 17.5118C3.92357 17.5032 3.90983 17.4986 3.8959 17.498C3.88199 17.4975 3.86799 17.501 3.85565 17.5085M4.00729 17.4164L9.01966 14.3732L9.02033 14.3728C9.16528 14.2851 9.33144 14.2388 9.50066 14.2388C9.66987 14.2388 9.83603 14.2851 9.98098 14.3728L9.9817 14.3732L14.9959 17.4184M3.85565 17.5085L3.85541 17.5086L3.89295 17.5704L3.89298 17.5705L3.89413 17.5724L3.8965 17.5763L3.8968 17.5768L4.11481 17.9358L3.89713 17.5769L3.89682 17.5764L3.89436 17.5723L3.8931 17.5702L3.893 17.57L3.85565 17.5085ZM14.9959 17.4184L15.0378 17.5928L15.0385 17.5956C15.0382 17.5947 15.038 17.5938 15.0378 17.5928C15.0348 17.5783 15.0359 17.5632 15.0411 17.5493C15.0465 17.5346 15.056 17.5223 15.068 17.5137C15.0799 17.5052 15.0937 17.5005 15.1077 17.5C15.1204 17.4996 15.133 17.5025 15.1445 17.5087C15.1454 17.5092 15.1462 17.5097 15.1471 17.5102L15.1445 17.5086L14.9959 17.4184ZM4.74534 11.208L0.149063 7.29643M4.74534 11.208L5.06911 10.8269L0.615237 7.0366M0.149063 7.29643C0.0851104 7.24206 0.0387975 7.17008 0.0159693 7.08958C-0.00685895 7.00908 -0.00517936 6.92366 0.0207962 6.8441C0.0467717 6.76455 0.095879 6.69442 0.16192 6.64257C0.227962 6.59073 0.307978 6.55949 0.391869 6.55279M0.149063 7.29643L0.425332 6.9735M0.615237 7.0366L6.46333 6.57145L6.46426 6.57137C6.6338 6.55757 6.79647 6.49744 6.93427 6.39731C7.07175 6.2974 7.17923 6.16147 7.24451 6.00418L7.24417 6.00498L6.78293 5.81197M0.615237 7.0366L0.431656 7.0512M0.615237 7.0366L0.473113 6.91565C0.484264 6.9252 0.492746 6.93816 0.497003 6.95317C0.50129 6.96829 0.500967 6.98439 0.496102 6.99929C0.491245 7.01417 0.482222 7.02679 0.47067 7.03586L0.425876 6.9788L0.425676 6.9763L0.42545 6.97346L0.425318 6.97181L0.425294 6.97151L0.391869 6.55279M6.78293 5.81197L7.245 6.00298L9.49924 0.616104M6.78293 5.81197C6.75309 5.88416 6.70374 5.94675 6.64034 5.99282C6.57694 6.03889 6.50197 6.06665 6.42369 6.07302M6.78293 5.81197L9.10592 0.260768L6.42369 6.07302M9.49924 0.616104L9.43136 0.453895C9.43736 0.468184 9.44727 0.479892 9.45935 0.487905C9.47143 0.495915 9.4853 0.5 9.49924 0.5C9.51317 0.5 9.52704 0.495915 9.53912 0.487905C9.55123 0.479873 9.56116 0.468127 9.56716 0.453788M9.49924 0.616104L9.56716 0.453788M9.56716 0.453788L9.50047 0.425881L9.56716 0.453788ZM6.42369 6.07302L0.391869 6.55279M6.42369 6.07302L0.431656 7.0512M0.431656 7.0512L0.431514 7.05122L0.42574 6.97863L0.425552 6.97626L0.425332 6.9735M0.431656 7.0512L0.425876 6.9788L0.470669 7.03586C0.459154 7.0449 0.445561 7.05009 0.431656 7.0512ZM0.431656 7.0512L0.425332 6.9735M0.391869 6.55279L0.425185 6.97164L0.425209 6.97194L0.425332 6.9735" stroke="#0500FF"/>
</svg>
