<svg width="26" height="25" viewBox="0 0 26 25" fill="none" xmlns="http://www.w3.org/2000/svg">
<path d="M12.0562 3.21762C12.3456 2.38522 12.4903 1.96904 12.7043 1.85369C12.8894 1.75385 13.1122 1.75385 13.2975 1.85369C13.5114 1.96904 13.656 2.38522 13.9454 3.21762L15.8583 8.72061C15.9406 8.95752 15.9818 9.07597 16.056 9.16419C16.1215 9.24211 16.2051 9.30285 16.2995 9.3411C16.4062 9.38441 16.5316 9.38696 16.7824 9.39207L22.6071 9.51077C23.4882 9.52872 23.9287 9.53771 24.1046 9.70552C24.2567 9.85076 24.3256 10.0628 24.2879 10.2697C24.2444 10.5089 23.8932 10.775 23.191 11.3075L18.5484 14.8271C18.3485 14.9787 18.2486 15.0545 18.1876 15.1522C18.1338 15.2387 18.1019 15.337 18.0946 15.4385C18.0865 15.5535 18.1227 15.6735 18.1954 15.9136L19.8825 21.49C20.1376 22.3335 20.2653 22.7552 20.16 22.9742C20.0689 23.1639 19.8885 23.2949 19.68 23.323C19.4391 23.3554 19.0775 23.1038 18.3541 22.6004L13.572 19.2728C13.3661 19.1295 13.2633 19.0579 13.1514 19.03C13.0525 19.0055 12.9491 19.0055 12.8504 19.03C12.7385 19.0579 12.6355 19.1295 12.4296 19.2728L7.64756 22.6004C6.92421 23.1038 6.56254 23.3554 6.32166 23.323C6.1132 23.2949 5.93283 23.1639 5.84171 22.9742C5.73644 22.7552 5.86404 22.3335 6.11923 21.49L7.80629 15.9136C7.87891 15.6735 7.91523 15.5535 7.90705 15.4385C7.89983 15.337 7.8679 15.2387 7.81404 15.1522C7.75308 15.0545 7.65314 14.9787 7.45328 14.8271L2.81073 11.3075C2.10848 10.775 1.75735 10.5089 1.71376 10.2697C1.67603 10.0628 1.74493 9.85076 1.89709 9.70552C2.07289 9.53771 2.51343 9.52874 3.39449 9.51077L9.21925 9.39207C9.47 9.38696 9.59539 9.38441 9.70221 9.3411C9.79658 9.30285 9.88018 9.24211 9.94571 9.16419C10.0199 9.07597 10.0611 8.95752 10.1434 8.72061L12.0562 3.21762Z" stroke="#0500FF" stroke-width="1.5" stroke-linecap="round" fill="current" stroke-linejoin="round"/>
</svg>
