<svg width="29" height="24" viewBox="0 0 29 24" fill="none" xmlns="http://www.w3.org/2000/svg">
<g filter="url(#filter0_d_1717_5472)">
<path fill-rule="evenodd" clip-rule="evenodd" d="M0.246684 6.20604L23.1829 0.191242L23.3023 1.19792C23.2271 1.20147 23.1499 1.21327 23.0716 1.23397C22.5051 1.38375 22.0973 1.9424 22.1607 2.48177C22.2241 3.02114 22.7348 3.33697 23.3013 3.1872C23.3802 3.16633 23.4561 3.13753 23.528 3.10194L23.6018 3.72427C23.537 3.72936 23.4708 3.74056 23.4038 3.75827C22.8373 3.90804 22.4295 4.4667 22.4929 5.00606C22.5563 5.54543 23.067 5.86126 23.6335 5.71149C23.7011 5.69361 23.7665 5.66991 23.8291 5.64111L23.9015 6.25186C23.8471 6.25781 23.7918 6.26805 23.736 6.28281C23.1695 6.43258 22.7617 6.99124 22.8251 7.5306C22.8885 8.06997 23.3992 8.3858 23.9657 8.23603C24.0222 8.22111 24.077 8.20213 24.13 8.17951L24.2012 8.7801C24.1571 8.78624 24.1125 8.7952 24.0674 8.8071C23.5009 8.95687 23.0931 9.51553 23.1565 10.0549C23.22 10.5943 23.7306 10.9101 24.2971 10.7603C24.3428 10.7483 24.3874 10.7335 24.4308 10.7164L24.5011 11.3096C24.4678 11.3153 24.4342 11.3226 24.4004 11.3315C23.8339 11.4813 23.4261 12.0399 23.4895 12.5793C23.5529 13.1187 24.0636 13.4345 24.6301 13.2847C24.6645 13.2756 24.6984 13.265 24.7315 13.253L24.7809 13.6691L1.84463 19.684L1.72527 18.6772C1.8004 18.6737 1.87763 18.6619 1.95593 18.6412C2.52244 18.4914 2.93026 17.9327 2.86683 17.3934C2.8034 16.854 2.29273 16.5382 1.72622 16.6879C1.64729 16.7088 1.57145 16.7376 1.49953 16.7732L1.42573 16.1508C1.49051 16.1457 1.55673 16.1345 1.62372 16.1168C2.19023 15.967 2.59806 15.4083 2.53463 14.869C2.4712 14.3296 1.96053 14.0138 1.39402 14.1635C1.3264 14.1814 1.26104 14.2051 1.19847 14.2339L1.1261 13.6235C1.18045 13.6176 1.23571 13.6073 1.29152 13.5926C1.85803 13.4428 2.26586 12.8842 2.20243 12.3448C2.139 11.8054 1.62833 11.4896 1.06182 11.6394C1.00539 11.6543 0.950529 11.6733 0.897557 11.6959L0.826299 11.0948C0.869909 11.0887 0.914053 11.0798 0.958542 11.068C1.52505 10.9183 1.93288 10.3596 1.86945 9.82024C1.80602 9.28088 1.29535 8.96505 0.728838 9.11482C0.683729 9.12674 0.639626 9.14126 0.596687 9.15816L0.526435 8.56562C0.559487 8.55997 0.592815 8.55273 0.626339 8.54387C1.19285 8.3941 1.60068 7.83544 1.53725 7.29607C1.47382 6.75671 0.963146 6.44088 0.396635 6.59065C0.362495 6.59967 0.32893 6.61018 0.29601 6.62209L0.246684 6.20604Z" fill="url(#paint0_linear_1717_5472)" shape-rendering="crispEdges"/>
</g>
<path d="M7.33796 8.20343L7.36399 8.67571L6.68194 8.80003L6.36662 8.87452L6.61848 11.017L6.80583 12.2117L6.19854 12.3552L6.08248 11.1988L5.76517 9.01661L5.44985 9.0911L4.76552 9.28957L4.7176 9.24569L4.70324 8.77065L7.29588 8.15817L7.33796 8.20343ZM8.86159 10.4871L9.04893 11.6818L8.4358 11.8267L8.32558 10.6689L7.93318 8.00761L8.55214 7.86139L8.86159 10.4871ZM10.886 7.2671C11.2675 7.17698 11.6157 7.18467 11.9307 7.2902L11.891 7.85774L11.8349 7.88938C11.547 7.74477 11.2453 7.70972 10.93 7.78421C10.5874 7.86514 10.3403 8.04619 10.1887 8.32736C10.0404 8.60364 9.99705 8.97577 10.0586 9.44373C10.1218 9.9236 10.2613 10.2668 10.4771 10.4735C10.693 10.6801 10.9702 10.7434 11.3089 10.6634C11.4724 10.6248 11.6303 10.5588 11.7826 10.4656C11.9383 10.3675 12.0775 10.2508 12.2001 10.1155L12.2632 10.1374L12.2901 10.7076C11.9772 10.9533 11.6573 11.1147 11.3303 11.192C10.8048 11.3161 10.378 11.2452 10.05 10.9792C9.72196 10.7132 9.5175 10.2729 9.4366 9.65815C9.3531 9.02362 9.43656 8.4989 9.68701 8.08398C9.94135 7.66814 10.341 7.39585 10.886 7.2671ZM13.4406 9.40535L13.6221 10.6015L13.0207 10.7436L12.8988 9.58855L12.5181 6.92448L13.1253 6.78102L13.4406 9.40535ZM14.0041 8.42579C14.5371 8.93777 15.1359 9.44648 15.8005 9.95192L15.804 10.0247C15.639 10.1127 15.4513 10.1959 15.2408 10.2743L15.1602 10.2565C14.4714 9.65866 13.881 9.10707 13.389 8.60175L13.3836 8.56011L14.362 6.84463L14.5501 6.44443L15.21 6.28855L14.0041 8.42579ZM18.4552 8.91995L18.4972 8.96521L18.5182 9.44482L16.3051 9.96763L16.1949 8.80988L15.8025 6.14857L18.0273 5.62299L18.0694 5.66825L18.0845 6.14923L17.1938 6.33512L16.4822 6.50936L16.6111 7.62591L17.29 7.47779L17.9066 7.31372L17.9537 7.35165L17.9689 7.83263L17.3067 7.97067L16.6718 8.13293L16.7309 8.62805L16.8408 9.32586L17.554 9.16351L18.4552 8.91995ZM20.9724 4.98243L20.9985 5.45471L20.3164 5.57903L20.0011 5.65352L20.253 7.796L20.4403 8.99074L19.833 9.13421L19.7169 7.97783L19.3996 5.79561L19.0843 5.8701L18.4 6.06857L18.3521 6.02469L18.3377 5.54965L20.9303 4.93717L20.9724 4.98243Z" fill="white"/>
<defs>
<filter id="filter0_d_1717_5472" x="0.246094" y="0.191406" width="28.5352" height="23.4922" filterUnits="userSpaceOnUse" color-interpolation-filters="sRGB">
<feFlood flood-opacity="0" result="BackgroundImageFix"/>
<feColorMatrix in="SourceAlpha" type="matrix" values="0 0 0 0 0 0 0 0 0 0 0 0 0 0 0 0 0 0 127 0" result="hardAlpha"/>
<feOffset dx="2" dy="2"/>
<feGaussianBlur stdDeviation="1"/>
<feComposite in2="hardAlpha" operator="out"/>
<feColorMatrix type="matrix" values="0 0 0 0 0 0 0 0 0 0 0 0 0 0 0 0 0 0 0.2 0"/>
<feBlend mode="normal" in2="BackgroundImageFix" result="effect1_dropShadow_1717_5472"/>
<feBlend mode="normal" in="SourceGraphic" in2="effect1_dropShadow_1717_5472" result="shape"/>
</filter>
<linearGradient id="paint0_linear_1717_5472" x1="-15.6763" y1="1.32836" x2="8.73527" y2="-15.271" gradientUnits="userSpaceOnUse">
<stop stop-color="#723F22" stop-opacity="0.5"/>
<stop offset="1" stop-color="#1C2C66" stop-opacity="0.5"/>
</linearGradient>
</defs>
</svg>
