<svg width="32" height="29" viewBox="0 0 32 29" fill="none" xmlns="http://www.w3.org/2000/svg">
<path d="M3.55556 18.125C2.55289 18.125 1.70963 17.7764 1.02578 17.0792C0.341926 16.382 0 15.5223 0 14.5C0 13.4777 0.341926 12.618 1.02578 11.9208C1.70963 11.2236 2.55289 10.875 3.55556 10.875V6.554C3.55556 5.74804 3.83704 5.05869 4.4 4.48594C4.96296 3.91319 5.63852 3.62621 6.42667 3.625H12.4444C12.4444 2.60275 12.7864 1.74302 13.4702 1.04581C14.1541 0.348604 14.9973 0 16 0C17.0027 0 17.8459 0.348604 18.5298 1.04581C19.2136 1.74302 19.5556 2.60275 19.5556 3.625H25.5733C26.3627 3.625 27.0382 3.91198 27.6 4.48594C28.1618 5.0599 28.4433 5.74865 28.4444 6.55219V10.875C29.4471 10.875 30.2904 11.2236 30.9742 11.9208C31.6581 12.618 32 13.4777 32 14.5C32 15.5223 31.6581 16.382 30.9742 17.0792C30.2904 17.7764 29.4471 18.125 28.4444 18.125V26.0728C28.4444 26.8776 28.163 27.5663 27.6 28.1391C27.037 28.7118 26.3615 28.9988 25.5733 29H6.42667C5.63733 29 4.96178 28.713 4.4 28.1391C3.83822 27.5651 3.55674 26.877 3.55556 26.0746V18.125ZM10.6631 15.4062C11.1561 15.4062 11.5763 15.2304 11.9236 14.8788C12.2708 14.5272 12.4444 14.1 12.4444 13.5974C12.4444 13.0947 12.272 12.6664 11.9271 12.3123C11.5822 11.9583 11.1633 11.7812 10.6702 11.7812C10.1772 11.7812 9.75704 11.9571 9.40978 12.3087C9.06252 12.6603 8.88889 13.0875 8.88889 13.5901C8.88889 14.0928 9.06133 14.5211 9.40622 14.8752C9.75111 15.2292 10.1701 15.4062 10.6631 15.4062ZM21.3298 15.4062C21.8228 15.4062 22.243 15.2304 22.5902 14.8788C22.9375 14.5272 23.1111 14.1 23.1111 13.5974C23.1111 13.0947 22.9387 12.6664 22.5938 12.3123C22.2489 11.9583 21.8299 11.7812 21.3369 11.7812C20.8439 11.7812 20.4237 11.9571 20.0764 12.3087C19.7292 12.6603 19.5556 13.0875 19.5556 13.5901C19.5556 14.0928 19.728 14.5211 20.0729 14.8752C20.4178 15.2292 20.8367 15.4062 21.3298 15.4062ZM10.6667 22.6562H21.3333C21.5858 22.6562 21.7967 22.5693 21.9662 22.3953C22.1357 22.2213 22.221 22.0056 22.2222 21.7482C22.2234 21.4908 22.1381 21.2757 21.9662 21.1029C21.7944 20.9301 21.5834 20.8438 21.3333 20.8438H10.6667C10.4142 20.8438 10.2033 20.9307 10.0338 21.1047C9.8643 21.2787 9.77896 21.4944 9.77778 21.7518C9.77659 22.0092 9.86193 22.2243 10.0338 22.3971C10.2056 22.5699 10.4166 22.6562 10.6667 22.6562ZM6.42844 27.1875H25.5733C25.8921 27.1875 26.1541 27.083 26.3591 26.8739C26.5641 26.6649 26.6667 26.3979 26.6667 26.0728V6.55219C26.6667 6.22715 26.5641 5.9601 26.3591 5.75106C26.1541 5.54202 25.8921 5.4375 25.5733 5.4375H6.42667C6.10785 5.4375 5.84593 5.54202 5.64089 5.75106C5.43585 5.9601 5.33333 6.22775 5.33333 6.554V26.0728C5.33333 26.3979 5.43585 26.6649 5.64089 26.8739C5.84593 27.083 6.10844 27.1875 6.42844 27.1875Z" fill="#0500FF"/>
</svg>
